<svg width="29" height="29" viewBox="0 0 29 29" fill="none" xmlns="http://www.w3.org/2000/svg">
<path fill-rule="evenodd" clip-rule="evenodd" d="M28.7071 1.70711C29.0976 1.31658 29.0976 0.683418 28.7071 0.292893C28.3166 -0.0976311 27.6834 -0.0976311 27.2929 0.292893L14.7071 12.8787L2.41423 0.585801C2.02371 0.195277 1.39054 0.195277 1.00002 0.585801C0.609492 0.976325 0.609492 1.60949 1.00002 2.00001L13.2929 14.2929L1.29286 26.2929C0.902338 26.6834 0.902338 27.3166 1.29286 27.7071C1.68339 28.0976 2.31655 28.0976 2.70708 27.7071L14.7071 15.7071L27 28C27.3905 28.3905 28.0237 28.3905 28.4142 28C28.8048 27.6095 28.8048 26.9763 28.4142 26.5858L16.1213 14.2929L28.7071 1.70711Z" fill="black"/>
</svg>
