<svg width="172" height="82" viewBox="0 0 172 82" fill="none" xmlns="http://www.w3.org/2000/svg">
<g filter="url(#filter0_d_103_209)">
<path fill-rule="evenodd" clip-rule="evenodd" d="M146.731 73.996C146.917 73.9986 147.104 74 147.291 74C158.728 74 168 68.9779 168 62.7828C168 58.9372 164.427 55.5437 158.982 53.5227C162.875 48.3359 165.094 42.3585 165.094 35.9955C165.094 16.1157 143.435 0 116.716 0C102.198 0 89.1745 4.75771 80.307 12.2918C75.7271 11.0564 70.7612 10.3801 65.5736 10.3801C42.5959 10.3801 23.9687 23.6475 23.9687 40.0136C23.9687 40.1616 23.9702 40.3095 23.9733 40.457C12.9335 41.8966 4.56553 48.7962 4.56553 57.0905C4.56553 66.0265 14.2783 73.3435 26.5807 73.9582V74H28.2598H146.731V73.996Z" fill="#003049"/>
</g>
<mask id="mask0_103_209" style="mask-type:alpha" maskUnits="userSpaceOnUse" x="2" y="0" width="164" height="74">
<path fill-rule="evenodd" clip-rule="evenodd" d="M144.166 73.996C144.352 73.9986 144.538 74 144.725 74C156.163 74 165.434 68.9779 165.434 62.7828C165.434 58.9372 161.862 55.5437 156.416 53.5227C160.31 48.3359 162.529 42.3585 162.529 35.9955C162.529 16.1157 140.869 0 114.15 0C99.6329 0 86.609 4.75771 77.7414 12.2918C73.1616 11.0564 68.1957 10.3801 63.0081 10.3801C40.0303 10.3801 21.4032 23.6475 21.4032 40.0136C21.4032 40.1616 21.4047 40.3095 21.4077 40.457C10.368 41.8966 2 48.7962 2 57.0905C2 66.0265 11.7127 73.3435 24.0151 73.9582V74H25.6943H144.166V73.996Z" fill="#003049"/>
</mask>
<g mask="url(#mask0_103_209)">
<ellipse cx="52.2111" cy="62.9502" rx="50.2111" ry="45.8733" fill="#1F53D9"/>
</g>
<defs>
<filter id="filter0_d_103_209" x="0.565536" y="0" width="171.434" height="82" filterUnits="userSpaceOnUse" color-interpolation-filters="sRGB">
<feFlood flood-opacity="0" result="BackgroundImageFix"/>
<feColorMatrix in="SourceAlpha" type="matrix" values="0 0 0 0 0 0 0 0 0 0 0 0 0 0 0 0 0 0 127 0" result="hardAlpha"/>
<feOffset dy="4"/>
<feGaussianBlur stdDeviation="2"/>
<feComposite in2="hardAlpha" operator="out"/>
<feColorMatrix type="matrix" values="0 0 0 0 0 0 0 0 0 0 0 0 0 0 0 0 0 0 0.25 0"/>
<feBlend mode="normal" in2="BackgroundImageFix" result="effect1_dropShadow_103_209"/>
<feBlend mode="normal" in="SourceGraphic" in2="effect1_dropShadow_103_209" result="shape"/>
</filter>
</defs>
</svg>
