<svg width="120" height="68" viewBox="0 0 120 68" fill="none" xmlns="http://www.w3.org/2000/svg">
<path fill-rule="evenodd" clip-rule="evenodd" d="M7 31.3846C3.13401 31.3846 0 34.5186 0 38.3846V61C0 64.866 3.13401 68 7 68H112.895C116.761 68 119.895 64.866 119.895 61V38.3846C119.895 34.5186 116.761 31.3846 112.895 31.3846H7ZM16.652 55.7948C19.411 55.7948 21.6476 53.453 21.6476 50.5641C21.6476 47.6752 19.411 45.3333 16.652 45.3333C13.893 45.3333 11.6564 47.6752 11.6564 50.5641C11.6564 53.453 13.893 55.7948 16.652 55.7948ZM94.9166 50.5641C94.9166 53.453 92.68 55.7948 89.921 55.7948C87.162 55.7948 84.9254 53.453 84.9254 50.5641C84.9254 47.6752 87.162 45.3333 89.921 45.3333C92.68 45.3333 94.9166 47.6752 94.9166 50.5641ZM106.573 55.7948C109.332 55.7948 111.569 53.453 111.569 50.5641C111.569 47.6752 109.332 45.3333 106.573 45.3333C103.814 45.3333 101.577 47.6752 101.577 50.5641C101.577 53.453 103.814 55.7948 106.573 55.7948Z" fill="#003049"/>
<rect x="8.32611" width="4.99561" height="34.8718" rx="1" fill="#003049"/>
<rect x="106.573" width="4.99561" height="36.6154" rx="1" fill="#003049"/>
<mask id="mask0_103_212" style="mask-type:alpha" maskUnits="userSpaceOnUse" x="0" y="0" width="120" height="68">
<path fill-rule="evenodd" clip-rule="evenodd" d="M7 31.3846C3.13401 31.3846 0 34.5186 0 38.3846V61C0 64.866 3.13401 68 7 68H112.895C116.761 68 119.895 64.866 119.895 61V38.3846C119.895 34.5186 116.761 31.3846 112.895 31.3846H7ZM16.652 55.7948C19.411 55.7948 21.6476 53.453 21.6476 50.5641C21.6476 47.6752 19.411 45.3333 16.652 45.3333C13.893 45.3333 11.6564 47.6752 11.6564 50.5641C11.6564 53.453 13.893 55.7948 16.652 55.7948ZM94.9166 50.5641C94.9166 53.453 92.68 55.7948 89.921 55.7948C87.162 55.7948 84.9254 53.453 84.9254 50.5641C84.9254 47.6752 87.162 45.3333 89.921 45.3333C92.68 45.3333 94.9166 47.6752 94.9166 50.5641ZM106.573 55.7948C109.332 55.7948 111.569 53.453 111.569 50.5641C111.569 47.6752 109.332 45.3333 106.573 45.3333C103.814 45.3333 101.577 47.6752 101.577 50.5641C101.577 53.453 103.814 55.7948 106.573 55.7948Z" fill="#003049"/>
<rect x="8.32611" width="4.99561" height="34.8718" rx="1" fill="#003049"/>
<rect x="106.573" width="4.99561" height="36.6154" rx="1" fill="#003049"/>
</mask>
<g mask="url(#mask0_103_212)">
<path d="M7.61719 8.71794L93.842 81.5089L64.5771 119.515L17.9213 86.2284L-21.6477 46.7243L7.61719 8.71794Z" fill="#1F53D9"/>
</g>
</svg>
