<svg width="43" height="44" viewBox="0 0 43 44" fill="none" xmlns="http://www.w3.org/2000/svg">
<path fill-rule="evenodd" clip-rule="evenodd" d="M16.316 0H26.4948V5.43464C27.4381 5.73817 28.347 6.12149 29.2141 6.57691L32.9426 2.74492L40.1401 10.1423L36.5476 13.8346C37.0544 14.7649 37.4832 15.7463 37.8248 16.7692H42.8108V27.2308H38.1882C37.8869 28.4016 37.4736 29.5257 36.9609 30.5902L40.1401 33.8576L32.9426 41.2551L29.9901 38.2206C28.8943 38.8699 27.7237 39.4008 26.4948 39.7962V44H16.316V39.8895C15.0493 39.5075 13.8421 38.9823 12.7122 38.3321L9.86824 41.255L2.67075 33.8576L5.65068 30.7949C5.09145 29.6701 4.64396 28.4769 4.32324 27.2308H0V16.7692H4.68662C5.05235 15.6741 5.51796 14.6266 6.0723 13.6384L2.67076 10.1424L9.86826 2.74493L13.4965 6.47394C14.3954 6.01663 15.3379 5.63629 16.316 5.34133V0ZM30.5364 22C30.5364 27.183 26.4483 31.3846 21.4054 31.3846C16.3625 31.3846 12.2745 27.183 12.2745 22C12.2745 16.817 16.3625 12.6154 21.4054 12.6154C26.4483 12.6154 30.5364 16.817 30.5364 22ZM21.5551 28C24.6966 28 27.2432 25.3826 27.2432 22.1539C27.2432 18.9251 24.6966 16.3077 21.5551 16.3077C18.4136 16.3077 15.8669 18.9251 15.8669 22.1539C15.8669 25.3826 18.4136 28 21.5551 28Z" fill="white"/>
<mask id="mask0_103_247" style="mask-type:alpha" maskUnits="userSpaceOnUse" x="0" y="0" width="43" height="44">
<path fill-rule="evenodd" clip-rule="evenodd" d="M16.316 0H26.4948V5.43464C27.4381 5.73817 28.347 6.12149 29.2141 6.57691L32.9426 2.74492L40.1401 10.1423L36.5476 13.8346C37.0544 14.7649 37.4832 15.7463 37.8248 16.7692H42.8108V27.2308H38.1882C37.8869 28.4016 37.4736 29.5257 36.9609 30.5902L40.1401 33.8576L32.9426 41.2551L29.9901 38.2206C28.8943 38.8699 27.7237 39.4008 26.4948 39.7962V44H16.316V39.8895C15.0493 39.5075 13.8421 38.9823 12.7122 38.3321L9.86824 41.255L2.67075 33.8576L5.65068 30.7949C5.09145 29.6701 4.64396 28.4769 4.32324 27.2308H0V16.7692H4.68662C5.05235 15.6741 5.51796 14.6266 6.0723 13.6384L2.67076 10.1424L9.86826 2.74493L13.4965 6.47394C14.3954 6.01663 15.3379 5.63629 16.316 5.34133V0ZM30.5364 22C30.5364 27.183 26.4483 31.3846 21.4054 31.3846C16.3625 31.3846 12.2745 27.183 12.2745 22C12.2745 16.817 16.3625 12.6154 21.4054 12.6154C26.4483 12.6154 30.5364 16.817 30.5364 22ZM21.5551 28C24.6966 28 27.2432 25.3826 27.2432 22.1539C27.2432 18.9251 24.6966 16.3077 21.5551 16.3077C18.4136 16.3077 15.8669 18.9251 15.8669 22.1539C15.8669 25.3826 18.4136 28 21.5551 28Z" fill="#003049"/>
</mask>
<g mask="url(#mask0_103_247)">
<rect width="48.8453" height="48.8453" transform="matrix(0.69199 -0.721907 0.69199 0.721907 -30.204 44.0297)" fill="white"/>
</g>
</svg>
