<svg width="109" height="107" viewBox="0 0 109 107" fill="none" xmlns="http://www.w3.org/2000/svg">
<path fill-rule="evenodd" clip-rule="evenodd" d="M41.2325 0H66.9555V13.1647C69.3393 13.9 71.6363 14.8286 73.8277 15.9318L83.2498 6.64929L101.439 24.5687L92.3601 33.5128C93.6409 35.7665 94.7245 38.1436 95.5878 40.6216H108.188V65.9635H96.506C95.7445 68.7998 94.7002 71.5227 93.4046 74.1013L101.439 82.0164L83.2498 99.9358L75.7886 92.5852C73.0193 94.158 70.061 95.444 66.9555 96.4019V106.585H41.2325V96.6279C38.0313 95.7025 34.9806 94.4302 32.1253 92.8552L24.9382 99.9358L6.74932 82.0164L14.28 74.5973C12.8667 71.8727 11.7358 68.9823 10.9253 65.9635H0V40.6216H11.8436C12.7678 37.9687 13.9445 35.4314 15.3454 33.0374L6.74933 24.5687L24.9382 6.64929L34.1072 15.6824C36.3788 14.5746 38.7607 13.6532 41.2325 12.9387V0ZM77.1691 53.2926C77.1691 65.8478 66.838 76.0258 54.094 76.0258C41.35 76.0258 31.0189 65.8478 31.0189 53.2926C31.0189 40.7374 41.35 30.5594 54.094 30.5594C66.838 30.5594 77.1691 40.7374 77.1691 53.2926ZM54.4723 67.827C62.4112 67.827 68.8469 61.4866 68.8469 53.6653C68.8469 45.844 62.4112 39.5036 54.4723 39.5036C46.5334 39.5036 40.0976 45.844 40.0976 53.6653C40.0976 61.4866 46.5334 67.827 54.4723 67.827Z" fill="#003049"/>
<mask id="mask0_216_322" style="mask-type:alpha" maskUnits="userSpaceOnUse" x="0" y="0" width="109" height="107">
<path fill-rule="evenodd" clip-rule="evenodd" d="M41.2325 0H66.9555V13.1647C69.3393 13.9 71.6363 14.8286 73.8277 15.9318L83.2498 6.64929L101.439 24.5687L92.3601 33.5128C93.6409 35.7665 94.7245 38.1436 95.5878 40.6216H108.188V65.9635H96.506C95.7445 68.7998 94.7002 71.5227 93.4046 74.1013L101.439 82.0164L83.2498 99.9358L75.7886 92.5852C73.0193 94.158 70.061 95.444 66.9555 96.4019V106.585H41.2325V96.6279C38.0313 95.7025 34.9806 94.4302 32.1253 92.8552L24.9382 99.9358L6.74932 82.0164L14.28 74.5973C12.8667 71.8727 11.7358 68.9823 10.9253 65.9635H0V40.6216H11.8436C12.7678 37.9687 13.9445 35.4314 15.3454 33.0374L6.74933 24.5687L24.9382 6.64929L34.1072 15.6824C36.3788 14.5746 38.7607 13.6532 41.2325 12.9387V0ZM77.1691 53.2926C77.1691 65.8478 66.838 76.0258 54.094 76.0258C41.35 76.0258 31.0189 65.8478 31.0189 53.2926C31.0189 40.7374 41.35 30.5594 54.094 30.5594C66.838 30.5594 77.1691 40.7374 77.1691 53.2926ZM54.4723 67.827C62.4112 67.827 68.8469 61.4866 68.8469 53.6653C68.8469 45.844 62.4112 39.5036 54.4723 39.5036C46.5334 39.5036 40.0976 45.844 40.0976 53.6653C40.0976 61.4866 46.5334 67.827 54.4723 67.827Z" fill="#003049"/>
</mask>
<g mask="url(#mask0_216_322)">
<rect x="-76.3289" y="106.657" width="120.799" height="120.799" transform="rotate(-45 -76.3289 106.657)" fill="#1F53D9"/>
</g>
</svg>
