<svg width="94" height="81" viewBox="0 0 94 81" fill="none" xmlns="http://www.w3.org/2000/svg">
<path fill-rule="evenodd" clip-rule="evenodd" d="M18.1035 55.1704C7.50223 50.993 0 40.6601 0 28.575C0 12.7935 12.7935 0 28.575 0C35.3677 0 41.6068 2.37011 46.5104 6.32845C51.4141 2.37011 57.6531 0 64.4458 0C80.2273 0 93.0208 12.7935 93.0208 28.575C93.0208 40.7689 85.3829 51.1789 74.6303 55.2817C74.2366 57.1344 73.2861 58.929 71.6882 60.4377L53.1086 77.9798C49.2345 81.6376 43.1692 81.612 39.3218 77.9261L21.0154 60.3877C19.4179 58.8573 18.4784 57.0406 18.1035 55.1704Z" fill="#003049"/>
<path fill-rule="evenodd" clip-rule="evenodd" d="M36.6326 24.7783C36.5469 24.5158 36.6903 24.2336 36.9528 24.1479C37.2153 24.0622 37.4976 24.2056 37.5833 24.4681L37.6868 24.7853C37.8662 24.9072 37.9514 25.1373 37.8807 25.3538L37.8765 25.3667L45.1368 47.6143L52.7301 29.126C52.8181 28.9118 53.0445 28.7711 53.273 28.7722C53.2591 28.5698 53.3864 28.3876 53.6021 28.3317C53.8694 28.2624 54.1711 28.4133 54.276 28.6687L62.0022 47.4807H81.3207C81.5969 47.4807 81.8207 47.7046 81.8207 47.9807C81.8207 48.2568 81.5969 48.4807 81.3207 48.4807H61.2999C61.0237 48.4807 60.7999 48.2568 60.7999 47.9807C60.7999 47.8267 60.8695 47.6889 60.979 47.5972L53.597 29.6232L45.934 48.2813C45.8372 48.5168 45.5731 48.6635 45.323 48.6305C45.266 48.7494 45.1624 48.8457 45.0272 48.8898C44.7647 48.9755 44.4824 48.8321 44.3967 48.5696L37.3505 26.9783L30.1166 49.1451C30.0309 49.4076 29.7486 49.551 29.4861 49.4653C29.3954 49.4357 29.3189 49.3826 29.2611 49.3149H11.2476C10.9715 49.3149 10.7476 49.0911 10.7476 48.8149C10.7476 48.5388 10.9715 48.3149 11.2476 48.3149H29.3356L36.8246 25.3667L36.6326 24.7783Z" fill="#1F53D9"/>
<path d="M36.9528 24.1479L36.4875 22.7219L36.4875 22.7219L36.9528 24.1479ZM36.6326 24.7783L38.0586 24.313L38.0586 24.313L36.6326 24.7783ZM37.5833 24.4681L36.1573 24.9335L36.1573 24.9335L37.5833 24.4681ZM37.6868 24.7853L36.2608 25.2506L36.4197 25.7376L36.8433 26.0257L37.6868 24.7853ZM37.8807 25.3538L36.4547 24.8885L36.4547 24.8885L37.8807 25.3538ZM37.8765 25.3667L36.4505 24.9013L36.2987 25.3667L36.4505 25.832L37.8765 25.3667ZM45.1368 47.6143L43.7109 48.0796L44.9756 51.9551L46.5244 48.1841L45.1368 47.6143ZM52.7301 29.126L51.3425 28.5561V28.5561L52.7301 29.126ZM53.273 28.7722L53.2659 30.2722L54.8799 30.2798L54.7695 28.6695L53.273 28.7722ZM53.6021 28.3317L53.2256 26.8798L53.2255 26.8798L53.6021 28.3317ZM54.276 28.6687L55.6635 28.0989L55.6635 28.0989L54.276 28.6687ZM62.0022 47.4807L60.6147 48.0506L60.9967 48.9807H62.0022V47.4807ZM60.979 47.5972L61.9422 48.7471L62.7834 48.0425L62.3665 47.0274L60.979 47.5972ZM53.597 29.6232L54.9845 29.0534L53.597 25.675L52.2094 29.0534L53.597 29.6232ZM45.934 48.2813L47.3215 48.8512L47.3215 48.8512L45.934 48.2813ZM45.323 48.6305L45.5188 47.1434L44.4404 47.0014L43.9703 47.9823L45.323 48.6305ZM45.0272 48.8898L44.5618 47.4639L44.5618 47.4639L45.0272 48.8898ZM44.3967 48.5696L42.9707 49.035V49.035L44.3967 48.5696ZM37.3505 26.9783L38.7765 26.513L37.3506 22.1433L35.9246 26.513L37.3505 26.9783ZM30.1166 49.1451L31.5426 49.6105V49.6105L30.1166 49.1451ZM29.4861 49.4653L29.0208 50.8913L29.4861 49.4653ZM29.2611 49.3149L30.4023 48.3414L29.9531 47.8149H29.2611V49.3149ZM29.3356 48.3149V49.8149H30.4239L30.7616 48.7803L29.3356 48.3149ZM36.8246 25.3667L38.2506 25.832L38.4025 25.3667L38.2506 24.9013L36.8246 25.3667ZM36.4875 22.7219C35.4374 23.0646 34.8639 24.1936 35.2066 25.2437L38.0586 24.313C38.2299 24.838 37.9432 25.4025 37.4182 25.5739L36.4875 22.7219ZM39.0093 24.0027C38.6666 22.9527 37.5375 22.3792 36.4875 22.7219L37.4182 25.5739C36.8931 25.7452 36.3286 25.4585 36.1573 24.9335L39.0093 24.0027ZM39.1128 24.3199L39.0093 24.0027L36.1573 24.9335L36.2608 25.2506L39.1128 24.3199ZM39.3067 25.8192C39.5901 24.9508 39.247 24.0322 38.5302 23.5448L36.8433 26.0257C36.4853 25.7823 36.3127 25.3237 36.4547 24.8885L39.3067 25.8192ZM39.3025 25.832L39.3067 25.8191L36.4547 24.8885L36.4505 24.9013L39.3025 25.832ZM46.5628 47.1489L39.3025 24.9013L36.4505 25.832L43.7109 48.0796L46.5628 47.1489ZM51.3425 28.5561L43.7493 47.0444L46.5244 48.1841L54.1176 29.6959L51.3425 28.5561ZM53.2801 27.2722C52.4819 27.2684 51.6779 27.7396 51.3425 28.5561L54.1176 29.6959C54.0334 29.901 53.8955 30.043 53.7599 30.1301C53.6256 30.2165 53.4573 30.2731 53.2659 30.2722L53.2801 27.2722ZM53.2255 26.8798C52.3322 27.1114 51.7117 27.9307 51.7765 28.8748L54.7695 28.6695C54.8065 29.2088 54.4406 29.6639 53.9786 29.7837L53.2255 26.8798ZM55.6635 28.0989C55.2738 27.1498 54.2187 26.6222 53.2256 26.8798L53.9786 29.7837C53.7237 29.8498 53.4949 29.803 53.3291 29.7201C53.1632 29.6371 52.9885 29.4822 52.8885 29.2386L55.6635 28.0989ZM63.3897 46.9108L55.6635 28.0989L52.8885 29.2386L60.6147 48.0506L63.3897 46.9108ZM62.0022 48.9807H81.3207V45.9807H62.0022V48.9807ZM81.3207 48.9807C80.7685 48.9807 80.3207 48.533 80.3207 47.9807H83.3207C83.3207 46.8761 82.4253 45.9807 81.3207 45.9807V48.9807ZM80.3207 47.9807C80.3207 47.4284 80.7685 46.9807 81.3207 46.9807V49.9807C82.4253 49.9807 83.3207 49.0853 83.3207 47.9807H80.3207ZM81.3207 46.9807H61.2999V49.9807H81.3207V46.9807ZM61.2999 46.9807C61.8521 46.9807 62.2999 47.4284 62.2999 47.9807H59.2999C59.2999 49.0853 60.1953 49.9807 61.2999 49.9807V46.9807ZM62.2999 47.9807C62.2999 48.2892 62.1584 48.566 61.9422 48.7471L60.0158 46.4473C59.5806 46.8119 59.2999 47.3642 59.2999 47.9807H62.2999ZM52.2094 30.1931L59.5915 48.1671L62.3665 47.0274L54.9845 29.0534L52.2094 30.1931ZM47.3215 48.8512L54.9845 30.1931L52.2094 29.0534L44.5464 47.7114L47.3215 48.8512ZM45.1271 50.1177C46.0281 50.2363 46.9571 49.7384 47.3215 48.8512L44.5464 47.7114C44.6389 47.4863 44.7955 47.3371 44.9465 47.2516C45.0965 47.1666 45.2939 47.1138 45.5188 47.1434L45.1271 50.1177ZM45.4925 50.3158C46.0333 50.1394 46.4489 49.7519 46.6757 49.2788L43.9703 47.9823C44.0831 47.747 44.2915 47.5521 44.5618 47.4639L45.4925 50.3158ZM42.9707 49.035C43.3134 50.0851 44.4425 50.6585 45.4925 50.3158L44.5618 47.4639C45.0868 47.2925 45.6514 47.5792 45.8227 48.1043L42.9707 49.035ZM35.9246 27.4437L42.9707 49.035L45.8227 48.1043L38.7765 26.513L35.9246 27.4437ZM31.5426 49.6105L38.7765 27.4437L35.9246 26.513L28.6906 48.6798L31.5426 49.6105ZM29.0208 50.8913C30.0708 51.234 31.1999 50.6605 31.5426 49.6105L28.6906 48.6798C28.8619 48.1547 29.4265 47.868 29.9515 48.0393L29.0208 50.8913ZM28.12 50.2885C28.3519 50.5603 28.66 50.7736 29.0208 50.8913L29.9515 48.0393C30.1308 48.0978 30.2858 48.2049 30.4023 48.3414L28.12 50.2885ZM11.2476 50.8149H29.2611V47.8149H11.2476V50.8149ZM9.24762 48.8149C9.24762 49.9195 10.143 50.8149 11.2476 50.8149V47.8149C11.7999 47.8149 12.2476 48.2626 12.2476 48.8149H9.24762ZM11.2476 46.8149C10.143 46.8149 9.24762 47.7103 9.24762 48.8149H12.2476C12.2476 49.3672 11.7999 49.8149 11.2476 49.8149V46.8149ZM29.3356 46.8149H11.2476V49.8149H29.3356V46.8149ZM35.3986 24.9013L27.9096 47.8496L30.7616 48.7803L38.2506 25.832L35.3986 24.9013ZM35.2066 25.2437L35.3986 25.832L38.2506 24.9013L38.0586 24.313L35.2066 25.2437Z" fill="#1F53D9"/>
</svg>
