<svg width="44" height="38" viewBox="0 0 44 38" fill="none" xmlns="http://www.w3.org/2000/svg">
<path fill-rule="evenodd" clip-rule="evenodd" d="M9.56873 26.358C4.0366 24.7112 0 19.5573 0 13.4542C0 6.02367 5.9837 0 13.365 0C16.542 0 19.4601 1.11594 21.7536 2.97969C24.0471 1.11594 26.9652 0 30.1423 0C37.5235 0 43.5072 6.02367 43.5072 13.4542C43.5072 19.6117 39.3983 24.8031 33.7901 26.4012C33.6712 27.6227 33.133 28.8335 32.0913 29.8235L25.4271 36.1576C23.29 38.1889 19.9306 38.175 17.8083 36.1283L11.2424 29.7959C10.2077 28.7979 9.67814 27.5818 9.56873 26.358Z" fill="white"/>
<path fill-rule="evenodd" clip-rule="evenodd" d="M17.0944 11.6796C17.0475 11.5349 17.1266 11.3791 17.2711 11.3317C17.4155 11.2842 17.5707 11.363 17.6176 11.5077L17.6625 11.6463C17.7505 11.7143 17.7919 11.8316 17.7589 11.9435L21.1158 22.2988L24.6226 13.7032C24.6648 13.5999 24.7653 13.5277 24.8739 13.5118C24.8813 13.4142 24.9488 13.3303 25.0554 13.3025C25.2025 13.2641 25.3684 13.3471 25.4258 13.4879L29.0275 22.3159H38.035C38.1871 22.3159 38.3103 22.4392 38.3103 22.5912C38.3103 22.7433 38.1871 22.8666 38.035 22.8666H28.6709C28.5188 22.8666 28.3956 22.7433 28.3956 22.5912C28.3956 22.5172 28.4248 22.45 28.4723 22.4005L25.0681 14.0565L21.5241 22.7432C21.4755 22.8624 21.3493 22.9401 21.2224 22.938C21.1894 22.9925 21.1375 23.036 21.0723 23.0574C20.9278 23.1049 20.7727 23.0261 20.7258 22.8814L17.4695 12.8366L14.1253 23.1524C14.0784 23.2971 13.9233 23.3759 13.7788 23.3284C13.7353 23.3141 13.6977 23.29 13.6677 23.2593H5.26071C5.10864 23.2593 4.98535 23.1361 4.98535 22.984C4.98535 22.8319 5.10864 22.7086 5.26071 22.7086H13.6902L17.18 11.9437L17.0944 11.6796Z" fill="#1F53D9"/>
<path d="M17.2711 11.3317L17.0132 10.5469L17.0132 10.5469L17.2711 11.3317ZM17.0944 11.6796L16.3085 11.9343L16.3085 11.9343L17.0944 11.6796ZM17.6176 11.5077L18.4034 11.2529L18.4034 11.2529L17.6176 11.5077ZM17.6625 11.6463L16.8767 11.9011L16.9555 12.1441L17.1577 12.3002L17.6625 11.6463ZM17.7589 11.9435L16.9666 11.7095L16.8941 11.9549L16.9731 12.1983L17.7589 11.9435ZM21.1158 22.2988L20.33 22.5535L21.0269 24.7035L21.8807 22.6108L21.1158 22.2988ZM24.6226 13.7032L23.8578 13.3912L23.8578 13.3912L24.6226 13.7032ZM24.8739 13.5118L24.994 14.3291L25.6481 14.233L25.6977 13.5737L24.8739 13.5118ZM25.0554 13.3025L25.264 14.1018V14.1018L25.0554 13.3025ZM25.4258 13.4879L24.6609 13.8L24.6609 13.8L25.4258 13.4879ZM29.0275 22.3159L28.2626 22.6279L28.4723 23.142H29.0275V22.3159ZM28.4723 22.4005L29.068 22.9729L29.4401 22.5857L29.2372 22.0884L28.4723 22.4005ZM25.0681 14.0565L25.833 13.7444L25.0681 11.8696L24.3033 13.7444L25.0681 14.0565ZM21.5241 22.7432L20.7592 22.4312L20.7592 22.4312L21.5241 22.7432ZM21.2224 22.938L21.2366 22.112L20.7614 22.1038L20.5155 22.5105L21.2224 22.938ZM21.0723 23.0574L20.8145 22.2726L21.0723 23.0574ZM20.7258 22.8814L19.9399 23.1362L19.9399 23.1362L20.7258 22.8814ZM17.4695 12.8366L18.2553 12.5819L17.4695 10.1578L16.6836 12.5819L17.4695 12.8366ZM14.1253 23.1524L13.3395 22.8977L14.1253 23.1524ZM13.7788 23.3284L13.5209 24.1132L13.521 24.1132L13.7788 23.3284ZM13.6677 23.2593L14.2583 22.6817L14.0153 22.4333H13.6677V23.2593ZM13.6902 22.7086V23.5347H14.2909L14.4761 22.9634L13.6902 22.7086ZM17.18 11.9437L17.9658 12.1984L18.0484 11.9437L17.9658 11.6889L17.18 11.9437ZM17.0132 10.5469C16.4365 10.7363 16.1214 11.3569 16.3085 11.9343L17.8802 11.4248C17.9736 11.713 17.8167 12.022 17.5289 12.1165L17.0132 10.5469ZM18.4034 11.2529C18.2154 10.6731 17.5924 10.3566 17.0132 10.5469L17.5289 12.1165C17.2387 12.2118 16.926 12.053 16.8318 11.7624L18.4034 11.2529ZM18.4484 11.3916L18.4034 11.2529L16.8318 11.7624L16.8767 11.9011L18.4484 11.3916ZM18.5511 12.1776C18.6837 11.7289 18.517 11.2623 18.1674 10.9924L17.1577 12.3002C16.9841 12.1662 16.9002 11.9344 16.9666 11.7095L18.5511 12.1776ZM21.9016 22.044L18.5447 11.6888L16.9731 12.1983L20.33 22.5535L21.9016 22.044ZM23.8578 13.3912L20.3509 21.9867L21.8807 22.6108L25.3875 14.0153L23.8578 13.3912ZM24.7539 12.6945C24.3835 12.7488 24.0204 12.9925 23.8578 13.3912L25.3875 14.0153C25.3091 14.2074 25.1471 14.3066 24.994 14.3291L24.7539 12.6945ZM24.8467 12.5032C24.4102 12.6171 24.0849 12.9885 24.0502 13.4498L25.6977 13.5737C25.6777 13.8399 25.4874 14.0435 25.264 14.1018L24.8467 12.5032ZM26.1907 13.1759C25.9768 12.6515 25.3946 12.3602 24.8467 12.5032L25.264 14.1018C25.1234 14.1385 24.9967 14.1129 24.9045 14.0667C24.8123 14.0206 24.7158 13.9345 24.6609 13.8L26.1907 13.1759ZM29.7923 22.0038L26.1907 13.1759L24.6609 13.8L28.2626 22.6279L29.7923 22.0038ZM29.0275 23.142H38.035V21.4898H29.0275V23.142ZM38.035 23.142C37.7308 23.142 37.4843 22.8954 37.4843 22.5912H39.1364C39.1364 21.9829 38.6433 21.4898 38.035 21.4898V23.142ZM37.4843 22.5912C37.4843 22.2871 37.7308 22.0405 38.035 22.0405V23.6927C38.6433 23.6927 39.1364 23.1996 39.1364 22.5912H37.4843ZM38.035 22.0405H28.6709V23.6927H38.035V22.0405ZM28.6709 22.0405C28.9751 22.0405 29.2216 22.2871 29.2216 22.5912H27.5695C27.5695 23.1996 28.0626 23.6927 28.6709 23.6927V22.0405ZM29.2216 22.5912C29.2216 22.739 29.1623 22.8747 29.068 22.9729L27.8767 21.8281C27.6872 22.0253 27.5695 22.2954 27.5695 22.5912H29.2216ZM24.3033 14.3685L27.7075 22.7125L29.2372 22.0884L25.833 13.7444L24.3033 14.3685ZM22.289 23.0553L25.833 14.3685L24.3033 13.7444L20.7592 22.4312L22.289 23.0553ZM21.2082 23.7639C21.6542 23.7716 22.1036 23.5097 22.289 23.0553L20.7592 22.4312C20.8058 22.3169 20.8828 22.2377 20.9589 22.1893C21.0342 22.1413 21.129 22.1101 21.2366 22.112L21.2082 23.7639ZM21.3301 23.8423C21.5903 23.7568 21.7982 23.5822 21.9293 23.3654L20.5155 22.5105C20.5806 22.4029 20.6847 22.3153 20.8145 22.2726L21.3301 23.8423ZM19.9399 23.1362C20.1279 23.7161 20.751 24.0325 21.3301 23.8423L20.8145 22.2726C21.1046 22.1773 21.4174 22.3362 21.5116 22.6267L19.9399 23.1362ZM16.6836 13.0914L19.9399 23.1362L21.5116 22.6267L18.2553 12.5819L16.6836 13.0914ZM14.9111 23.4072L18.2553 13.0914L16.6836 12.5819L13.3395 22.8977L14.9111 23.4072ZM13.521 24.1132C14.1001 24.3035 14.7232 23.987 14.9111 23.4072L13.3395 22.8977C13.4337 22.6071 13.7465 22.4483 14.0366 22.5436L13.521 24.1132ZM13.0771 23.837C13.1975 23.96 13.3484 24.0565 13.5209 24.1132L14.0366 22.5436C14.1222 22.5717 14.198 22.62 14.2583 22.6817L13.0771 23.837ZM5.26071 24.0854H13.6677V22.4333H5.26071V24.0854ZM4.15926 22.984C4.15926 23.5923 4.6524 24.0854 5.26071 24.0854V22.4333C5.56487 22.4333 5.81144 22.6798 5.81144 22.984H4.15926ZM5.26071 21.8825C4.6524 21.8825 4.15926 22.3757 4.15926 22.984H5.81144C5.81144 23.2881 5.56487 23.5347 5.26071 23.5347V21.8825ZM13.6902 21.8825H5.26071V23.5347H13.6902V21.8825ZM16.3942 11.6889L12.9044 22.4539L14.4761 22.9634L17.9658 12.1984L16.3942 11.6889ZM16.3085 11.9343L16.3942 12.1984L17.9658 11.6889L17.8802 11.4248L16.3085 11.9343Z" fill="#1F53D9"/>
</svg>
