<svg width="127" height="111" viewBox="0 0 127 111" fill="none" xmlns="http://www.w3.org/2000/svg">
<path fill-rule="evenodd" clip-rule="evenodd" d="M20.979 46.6906C14.1433 39.3188 12.78 28.8265 16.7005 20.2151L30.6022 35.207L44.51 36.332L44.4363 22.3789L30.6006 7.45814C39.4304 4.32016 49.6689 6.4967 56.4447 13.8039C63.9165 21.8617 64.85 33.6477 59.4916 42.6304L59.6063 42.6745L83.8091 68.7754L107.05 93.8385L104.598 101.778L96.653 103.479L73.4126 78.416L49.2097 52.315L49.1377 52.075C39.8381 56.5203 28.3563 54.6464 20.979 46.6906Z" fill="#003049"/>
<path fill-rule="evenodd" clip-rule="evenodd" d="M93.5129 16.3751L103.269 7.32817L113.982 10.7759L116.613 21.7184L106.857 30.7653L97.1002 39.8123L91.5294 38.0194L56.8181 70.2064L56.8101 77.7658L40.6686 92.7335L24.5271 107.701L15.3726 102.808L11.1834 93.311L27.3249 78.3433L43.4664 63.3756L49.5529 63.8291L85.0717 30.8933L83.7564 25.422L93.5129 16.3751Z" fill="#1F53D9"/>
</svg>
