<svg width="56" height="49" viewBox="0 0 56 49" fill="none" xmlns="http://www.w3.org/2000/svg">
<path fill-rule="evenodd" clip-rule="evenodd" d="M9.31737 20.7923C6.28038 17.5057 5.67223 12.8304 7.41072 8.99529L13.5892 15.6817L19.7599 16.1872L19.7227 9.97425L13.5737 3.31979C17.4922 1.92408 22.038 2.8968 25.0483 6.15446C28.3667 9.74567 28.7853 14.995 26.4111 18.9944L26.4517 19.01L37.1971 30.6389L47.5152 41.8054L46.4306 45.339L42.907 46.0935L32.5889 34.927L21.8435 23.2981L21.8145 23.2014C17.6889 25.1768 12.5936 24.3379 9.31737 20.7923Z" fill="white"/>
<path fill-rule="evenodd" clip-rule="evenodd" d="M41.5076 7.29472L45.8385 3.26446L50.5933 4.79952L51.7603 9.67336L47.4294 13.7036L43.0985 17.7339L40.6258 16.9356L25.2198 31.272L25.2158 34.6391L18.0507 41.3068L10.8856 47.9745L6.82275 45.7957L4.96398 41.5658L12.1291 34.898L19.2942 28.2303L21.9957 28.432L37.7602 13.762L37.1767 11.325L41.5076 7.29472Z" fill="white"/>
</svg>
