<svg width="54" height="32" viewBox="0 0 54 32" fill="none" xmlns="http://www.w3.org/2000/svg">
<path fill-rule="evenodd" clip-rule="evenodd" d="M36.0652 8.4211C37.0756 7.54111 37.7143 6.24514 37.7143 4.8C37.7143 2.14903 35.5652 0 32.9143 0C30.2633 0 28.1143 2.14903 28.1143 4.8C28.1143 5.11823 28.1452 5.42923 28.2043 5.73014L8.98483 18.9453C8.2527 18.6668 7.45844 18.5143 6.62857 18.5143C2.96771 18.5143 0 21.482 0 25.1429C0 28.8037 2.96771 31.7714 6.62857 31.7714C9.96284 31.7714 12.7221 29.3096 13.1879 26.1045H42.5294C42.5194 26.2398 42.5143 26.3764 42.5143 26.5143C42.5143 29.5439 44.9703 32 48 32C51.0297 32 53.4857 29.5439 53.4857 26.5143C53.4857 23.7284 51.4091 21.4276 48.7194 21.0753L36.0652 8.4211ZM33.946 9.48885C33.6137 9.56164 33.2684 9.6 32.9143 9.6C31.3993 9.6 30.0483 8.89818 29.1686 7.80195L11.0851 20.236C12.1162 21.1729 12.8507 22.4304 13.1313 23.851H43.203C43.8022 22.774 44.7536 21.9199 45.9014 21.4443L33.946 9.48885Z" fill="white"/>
<path fill-rule="evenodd" clip-rule="evenodd" d="M36.0652 8.4211C37.0756 7.54111 37.7143 6.24514 37.7143 4.8C37.7143 2.14903 35.5652 0 32.9143 0C30.2633 0 28.1143 2.14903 28.1143 4.8C28.1143 5.11823 28.1452 5.42923 28.2043 5.73014L8.98483 18.9453C8.2527 18.6668 7.45844 18.5143 6.62857 18.5143C2.96771 18.5143 0 21.482 0 25.1429C0 28.8037 2.96771 31.7714 6.62857 31.7714C9.96284 31.7714 12.7221 29.3096 13.1879 26.1045H42.5294C42.5194 26.2398 42.5143 26.3764 42.5143 26.5143C42.5143 29.5439 44.9703 32 48 32C51.0297 32 53.4857 29.5439 53.4857 26.5143C53.4857 23.7284 51.4091 21.4276 48.7194 21.0753L36.0652 8.4211ZM33.946 9.48885C33.6137 9.56164 33.2684 9.6 32.9143 9.6C31.3993 9.6 30.0483 8.89818 29.1686 7.80195L11.0851 20.236C12.1162 21.1729 12.8507 22.4304 13.1313 23.851H43.203C43.8022 22.774 44.7536 21.9199 45.9014 21.4443L33.946 9.48885Z" fill="white"/>
<path fill-rule="evenodd" clip-rule="evenodd" d="M36.0652 8.4211C37.0756 7.54111 37.7143 6.24514 37.7143 4.8C37.7143 2.14903 35.5652 0 32.9143 0C30.2633 0 28.1143 2.14903 28.1143 4.8C28.1143 5.11823 28.1452 5.42923 28.2043 5.73014L8.98483 18.9453C8.2527 18.6668 7.45844 18.5143 6.62857 18.5143C2.96771 18.5143 0 21.482 0 25.1429C0 28.8037 2.96771 31.7714 6.62857 31.7714C9.96284 31.7714 12.7221 29.3096 13.1879 26.1045H42.5294C42.5194 26.2398 42.5143 26.3764 42.5143 26.5143C42.5143 29.5439 44.9703 32 48 32C51.0297 32 53.4857 29.5439 53.4857 26.5143C53.4857 23.7284 51.4091 21.4276 48.7194 21.0753L36.0652 8.4211ZM33.946 9.48885C33.6137 9.56164 33.2684 9.6 32.9143 9.6C31.3993 9.6 30.0483 8.89818 29.1686 7.80195L11.0851 20.236C12.1162 21.1729 12.8507 22.4304 13.1313 23.851H43.203C43.8022 22.774 44.7536 21.9199 45.9014 21.4443L33.946 9.48885Z" fill="white"/>
</svg>
