<svg width="119" height="71" viewBox="0 0 119 71" fill="none" xmlns="http://www.w3.org/2000/svg">
<path fill-rule="evenodd" clip-rule="evenodd" d="M80.0197 18.6843C82.2616 16.7319 83.6786 13.8564 83.6786 10.65C83.6786 4.76817 78.9104 0 73.0286 0C67.1467 0 62.3786 4.76817 62.3786 10.65C62.3786 11.3561 62.4473 12.0461 62.5784 12.7137L19.9351 42.0349C18.3107 41.4169 16.5484 41.0786 14.7071 41.0786C6.58461 41.0786 0 47.6632 0 55.7857C0 63.9082 6.58461 70.4929 14.7071 70.4929C22.1051 70.4929 28.2272 65.0307 29.2607 57.9193H94.362C94.3399 58.2195 94.3286 58.5227 94.3286 58.8286C94.3286 65.5507 99.7779 71 106.5 71C113.222 71 118.671 65.5507 118.671 58.8286C118.671 52.6475 114.064 47.5426 108.096 46.7609L80.0197 18.6843ZM75.3177 21.0534C74.5803 21.2149 73.8144 21.3 73.0286 21.3C69.6673 21.3 66.6697 19.7428 64.7178 17.3105L24.5952 44.8986C26.8827 46.9774 28.5124 49.7674 29.1351 52.9193H95.8568C97.1863 50.5299 99.297 48.6349 101.844 47.5795L75.3177 21.0534Z" fill="#003049"/>
<path fill-rule="evenodd" clip-rule="evenodd" d="M80.0197 18.6843C82.2616 16.7319 83.6786 13.8564 83.6786 10.65C83.6786 4.76817 78.9104 0 73.0286 0C67.1467 0 62.3786 4.76817 62.3786 10.65C62.3786 11.3561 62.4473 12.0461 62.5784 12.7137L19.9351 42.0349C18.3107 41.4169 16.5484 41.0786 14.7071 41.0786C6.58461 41.0786 0 47.6632 0 55.7857C0 63.9082 6.58461 70.4929 14.7071 70.4929C22.1051 70.4929 28.2272 65.0307 29.2607 57.9193H94.362C94.3399 58.2195 94.3286 58.5227 94.3286 58.8286C94.3286 65.5507 99.7779 71 106.5 71C113.222 71 118.671 65.5507 118.671 58.8286C118.671 52.6475 114.064 47.5426 108.096 46.7609L80.0197 18.6843ZM75.3177 21.0534C74.5803 21.2149 73.8144 21.3 73.0286 21.3C69.6673 21.3 66.6697 19.7428 64.7178 17.3105L24.5952 44.8986C26.8827 46.9774 28.5124 49.7674 29.1351 52.9193H95.8568C97.1863 50.5299 99.297 48.6349 101.844 47.5795L75.3177 21.0534Z" fill="#003049"/>
<path fill-rule="evenodd" clip-rule="evenodd" d="M80.0197 18.6843C82.2616 16.7319 83.6786 13.8564 83.6786 10.65C83.6786 4.76817 78.9104 0 73.0286 0C67.1467 0 62.3786 4.76817 62.3786 10.65C62.3786 11.3561 62.4473 12.0461 62.5784 12.7137L19.9351 42.0349C18.3107 41.4169 16.5484 41.0786 14.7071 41.0786C6.58461 41.0786 0 47.6632 0 55.7857C0 63.9082 6.58461 70.4929 14.7071 70.4929C22.1051 70.4929 28.2272 65.0307 29.2607 57.9193H94.362C94.3399 58.2195 94.3286 58.5227 94.3286 58.8286C94.3286 65.5507 99.7779 71 106.5 71C113.222 71 118.671 65.5507 118.671 58.8286C118.671 52.6475 114.064 47.5426 108.096 46.7609L80.0197 18.6843ZM75.3177 21.0534C74.5803 21.2149 73.8144 21.3 73.0286 21.3C69.6673 21.3 66.6697 19.7428 64.7178 17.3105L24.5952 44.8986C26.8827 46.9774 28.5124 49.7674 29.1351 52.9193H95.8568C97.1863 50.5299 99.297 48.6349 101.844 47.5795L75.3177 21.0534Z" fill="#003049"/>
</svg>
