<svg width="386" height="386" viewBox="0 0 386 386" fill="none" xmlns="http://www.w3.org/2000/svg">
<path d="M176.364 353.693C175.787 353.354 175.449 352.646 174.796 352.395C174.503 352.282 173.968 351.951 173.802 351.701C173.635 351.45 173.277 351.307 173.055 351.097C172.844 350.896 172.582 350.778 172.395 350.549C172.272 350.398 172.114 350.27 171.945 350.178C171.669 350.027 171.468 349.639 171.232 349.492C171.136 349.431 171.141 349.323 171.082 349.251C170.941 349.079 170.751 348.914 170.628 348.73C170.472 348.495 170.324 348.197 170.114 348.017C169.959 347.884 169.857 347.666 169.709 347.518C169.58 347.389 169.346 347.35 169.207 347.211C168.995 346.999 169.224 346.424 169.274 346.198C169.361 345.808 169.639 345.449 169.679 345.05C169.72 344.648 169.884 344.311 169.953 343.932C170.025 343.535 170.287 343.215 170.287 342.807C170.287 342.446 170.42 342.42 170.523 342.109C170.589 341.913 170.708 341.77 170.763 341.577C170.829 341.347 170.893 341.07 170.962 340.819C171.123 340.237 171.232 339.566 171.232 338.958C171.232 338.724 171.372 338.469 171.431 338.261C171.572 337.767 171.492 337.199 171.382 336.708C171.32 336.426 171.386 336.408 171.097 336.258C170.83 336.119 170.585 335.969 170.287 335.901C169.725 335.774 169.054 335.867 168.479 335.867C167.942 335.867 167.312 335.916 166.806 335.732C166.544 335.637 166.267 335.653 165.999 335.564C165.72 335.47 165.409 335.337 165.125 335.275C164.82 335.208 164.629 334.942 164.48 334.682C164.267 334.309 163.935 334.011 163.708 333.639C163.439 333.199 163.511 332.273 164.045 332.079C164.305 331.984 164.552 331.641 164.765 331.479C164.993 331.306 165.288 330.876 165.422 330.631C165.749 330.032 166.482 329.807 166.81 329.217C166.924 329.011 167.22 328.91 167.331 328.71C167.397 328.591 167.586 328.543 167.586 328.407C167.586 328.252 167.733 328.349 167.789 328.238" stroke="#003049" stroke-width="4" stroke-linecap="round"/>
<path d="M168.126 327.968C168.151 327.748 168.261 327.572 168.261 327.326C168.261 327.126 168.329 326.941 168.329 326.737C168.329 326.289 168.396 325.881 168.396 325.436C168.396 324.893 167.025 324.806 166.573 324.794C166.2 324.784 165.825 324.659 165.456 324.659C165.151 324.659 164.874 324.657 164.608 324.49C164.297 324.296 163.891 324.063 163.561 323.916C163.383 323.837 163.274 323.789 163.265 323.564C163.254 323.28 163.139 323.029 163.13 322.754C163.112 322.223 163.3 321.865 163.497 321.414C163.556 321.279 163.509 321.069 163.617 320.961C163.732 320.846 163.942 320.834 164.09 320.78C164.721 320.551 165.321 320.518 165.981 320.42C166.301 320.373 166.63 320.425 166.952 320.402C167.443 320.365 167.866 320.218 168.333 320.101C168.78 319.99 169.168 319.85 169.597 319.678C169.83 319.583 170.218 319.411 170.475 319.393C170.955 319.358 171.394 319.121 171.87 319.055C172.324 318.992 172.764 318.853 173.224 318.785C173.782 318.702 174.223 318.374 174.743 318.23C175.101 318.13 175.598 317.789 175.895 317.566C176.32 317.247 176.996 317.302 177.377 316.962C177.476 316.873 177.595 316.911 177.714 316.879C177.907 316.827 178.068 316.674 178.251 316.594C178.432 316.515 178.571 316.385 178.693 316.223C178.898 315.95 179.216 315.537 179.503 315.345C179.672 315.233 179.863 315.106 180.01 314.974C180.138 314.859 180.28 314.588 180.415 314.516C180.733 314.348 180.87 314.261 181.259 314.261C181.331 314.261 181.628 314.293 181.63 314.261C181.644 314.042 181.546 313.679 181.645 313.481C181.806 313.16 182.216 312.719 182.456 312.453C182.627 312.262 182.859 312.157 183.015 311.928C183.203 311.65 183.565 311.463 183.724 311.185C183.956 310.778 184.38 310.474 184.399 309.992C184.413 309.619 184.524 309.083 184.699 308.758C184.835 308.505 184.923 308.239 185.059 307.982C185.161 307.789 185.358 307.612 185.415 307.411C185.443 307.316 185.677 306.986 185.749 306.901C186.026 306.579 186.263 306.065 186.627 305.836C186.898 305.665 187.432 305.285 187.572 304.969C187.798 304.462 188.268 304.056 188.435 303.525C188.551 303.155 188.81 302.786 188.994 302.441C189.099 302.244 189.148 301.999 189.26 301.815C189.318 301.719 189.433 301.65 189.459 301.533C189.533 301.2 189.836 300.992 189.988 300.689C190.042 300.58 190.27 300.423 190.374 300.318C190.482 300.21 190.581 300.155 190.716 300.082C190.794 300.039 190.793 299.899 190.851 299.883C191.136 299.801 191.361 299.311 191.623 299.136" stroke="#003049" stroke-width="4" stroke-linecap="round"/>
<path d="M191.623 299.069C192.814 297.746 193.194 295.781 194.759 294.785C195.538 294.29 196.315 293.566 195.675 292.651C195.254 292.05 195.141 291.078 195.014 290.374C194.851 289.466 194.379 288.51 194.054 287.643C193.913 287.268 193.728 286.769 193.656 286.375C193.591 286.014 193.386 285.747 193.259 285.415C193.099 284.998 192.73 284.52 192.704 284.08C192.694 283.913 192.518 283.733 192.614 283.562C192.829 283.174 193.156 282.866 193.345 282.459C193.523 282.076 193.864 281.7 194.122 281.364C194.508 280.859 195.014 280.404 195.299 279.833C195.424 279.585 195.512 279.394 195.622 279.136C195.774 278.778 195.82 278.428 195.975 278.074C196.101 277.786 196.076 277.808 196.38 277.665C196.823 277.456 197.229 277.475 197.715 277.425C198.924 277.301 200.051 277.192 201.264 277.192C201.966 277.192 202.669 277.192 203.372 277.192C204.193 277.192 205.245 277.132 206.02 277.425C206.47 277.595 207.052 277.822 207.491 277.53" stroke="#003049" stroke-width="4" stroke-linecap="round"/>
<path d="M207.153 277.665C207.24 277.187 207.72 276.86 208.016 276.517C208.304 276.183 208.649 275.91 209.059 275.737C209.911 275.377 210.584 274.769 211.272 274.158C211.881 273.616 212.687 273.217 213.192 272.567C213.368 272.342 213.723 272.095 213.766 271.791C213.823 271.397 213.77 270.955 213.77 270.56C213.77 269.913 213.77 269.265 213.77 268.617C213.77 267.927 213.829 267.346 213.958 266.674C214.042 266.231 213.95 265.74 214.055 265.309C214.168 264.845 214.268 264.353 214.411 263.895C214.609 263.263 214.788 262.501 214.847 261.832C214.899 261.223 215.053 260.66 215.053 260.042" stroke="#003049" stroke-width="4" stroke-linecap="round"/>
<path d="M214.608 260.058C214.833 260.008 214.879 259.396 214.925 259.215C215.047 258.724 215.115 258.241 215.171 257.739C215.281 256.741 215.259 255.727 215.315 254.724C215.373 253.676 215.689 252.65 215.803 251.624C215.819 251.481 215.993 251.292 216.057 251.159C216.255 250.747 216.489 250.347 216.752 249.972C217.457 248.971 218.425 248.183 219.106 247.161C220.015 245.798 220.86 244.393 221.793 243.05C222.119 242.58 222.478 242.132 222.867 241.714C223.091 241.472 223.579 241.07 223.675 240.758C223.826 240.268 223.815 239.71 223.815 239.2C223.815 238.876 223.675 238.663 223.675 238.341C223.675 238.228 223.647 238.068 223.679 237.958C223.703 237.875 223.856 237.894 223.89 237.743C223.909 237.654 224.067 237.469 224.128 237.392C224.208 237.289 224.167 237.093 224.167 236.97C224.167 236.701 224.167 236.431 224.167 236.162C224.167 235.796 223.956 235.507 223.956 235.178" stroke="#003049" stroke-width="4" stroke-linecap="round"/>
<path d="M223.745 235.319C223.745 235.052 223.872 234.791 223.812 234.518C223.758 234.277 222.532 234.204 222.3 234.124C221.876 233.977 221.465 233.923 221.02 233.913C220.635 233.904 220.154 233.715 219.778 233.616C219.568 233.561 219.387 233.436 219.177 233.382C218.908 233.313 218.657 233.301 218.404 233.175C218.212 233.079 218.098 232.906 217.912 232.804C217.761 232.721 217.45 232.615 217.357 232.464C217.149 232.125 216.867 231.866 216.615 231.554C216.337 231.211 216.115 230.549 215.987 230.122C215.647 228.989 215.688 227.723 214.835 226.869C214.711 226.745 214.643 226.514 214.573 226.361C214.389 225.956 214.348 226.094 213.902 226.002C212.895 225.795 211.911 225.83 210.883 225.83C209.167 225.83 207.472 225.892 205.761 225.963C203.102 226.074 200.521 225.479 197.877 225.479C197.581 225.479 197.201 225.541 196.928 225.409C196.765 225.33 196.676 225.221 196.479 225.202C196.298 225.184 196.13 225.183 195.983 225.057C195.7 224.814 195.204 224.724 194.859 224.604C194.457 224.465 194.051 224.364 193.648 224.229C193.289 224.11 192.945 223.934 192.579 223.831C192.007 223.671 191.375 223.545 190.833 223.304C190.078 222.968 189.189 222.953 188.459 222.527C187.973 222.244 187.386 222.109 186.886 221.84C186.571 221.671 186.306 221.413 186.003 221.262C185.838 221.179 185.728 221.096 185.597 220.965C185.451 220.819 185.139 220.776 184.949 220.7" stroke="#003049" stroke-width="4" stroke-linecap="round"/>
<path d="M185.09 220.489C185.09 219.652 185.068 218.867 184.933 218.045C184.785 217.138 184.498 216.241 184.387 215.327C184.288 214.508 184.124 213.693 184.356 212.867C184.485 212.406 184.598 212.066 184.598 211.579C184.598 211.176 184.7 210.602 184.543 210.228C184.285 209.614 183.689 209.185 183.157 208.752C182.401 208.136 181.693 207.346 181.083 206.588C180.722 206.139 180.236 205.542 180.107 204.964C180.034 204.635 179.655 204.628 179.35 204.57C178.462 204.4 177.586 204.246 176.687 204.148C175.502 204.02 174.317 203.939 173.134 203.801C171.885 203.654 170.619 203.525 169.377 203.34C168.908 203.27 168.401 203.338 167.956 203.184C167.739 203.109 167.449 202.783 167.449 202.532C167.449 201.902 167.2 201.064 166.957 200.489C166.646 199.758 166.546 198.908 165.973 198.319C165.468 197.799 165.052 197.094 164.669 196.491C164.241 195.82 163.731 195.228 163.107 194.695C162.299 194.006 161.663 193.265 160.604 193.016C159.815 192.83 159.049 192.156 158.226 192.095C158.005 192.078 157.606 191.828 157.414 191.954C157.173 192.111 157.08 192.458 156.961 192.696C156.814 192.989 156.695 193.127 156.695 193.469C156.695 193.702 156.695 193.935 156.695 194.168C156.695 194.286 156.695 194.405 156.695 194.523C156.695 194.844 155.672 194.796 155.446 194.851C154.435 195.096 153.377 195.163 152.346 195.292C150.611 195.509 148.843 195.76 147.137 195.273C146.937 195.216 146.944 195.068 146.871 194.89C146.781 194.669 146.463 194.432 146.309 194.234C146.105 193.971 145.806 193.726 145.556 193.531C144.715 192.878 144.255 191.773 143.623 190.954C143.403 190.67 143.225 190.526 142.951 190.302C142.575 189.994 142.342 189.916 141.866 189.916" stroke="#003049" stroke-width="4" stroke-linecap="round"/>
<path d="M141.936 189.635C141.057 189.635 140.05 189.703 139.199 189.455C138.483 189.246 137.768 189.032 137.055 188.807C136.802 188.727 136.549 188.565 136.313 188.436C136.101 188.32 135.888 188.282 135.677 188.19C135.105 187.94 134.443 187.948 133.83 187.948C133.265 187.948 132.693 187.923 132.131 187.874C131.953 187.858 131.803 187.793 131.62 187.807C131.506 187.816 131.326 188.289 131.253 188.385C130.989 188.733 130.755 189.078 130.445 189.389C130.081 189.753 129.666 189.971 129.254 190.267C128.763 190.62 128.068 190.932 127.77 191.501C127.506 192.004 127.053 192.399 127.036 193.008C127.025 193.393 126.808 193.986 126.653 194.34C126.237 195.291 125.451 195.902 124.826 196.706C124.646 196.938 124.51 197.387 124.225 197.522C124.062 197.599 123.928 197.76 123.756 197.788C123.48 197.832 123.065 197.955 122.827 198.104C122.625 198.23 122.328 198.76 122.116 198.771C121.411 198.811 120.753 198.369 120.039 198.35C119.757 198.342 119.462 198.231 119.188 198.174C118.623 198.056 118.048 197.991 117.517 197.752C116.99 197.516 116.639 197.24 116.056 197.1C115.279 196.914 114.496 196.966 113.717 196.765C113.084 196.6 112.398 196.725 111.785 196.452C111.572 196.358 111.311 196.353 111.082 196.312C110.756 196.252 110.479 196.101 110.141 196.101C109.913 196.101 109.715 195.978 109.504 195.905C109.27 195.825 108.822 195.918 108.637 195.734C108.539 195.635 108.552 195.488 108.552 195.363C108.552 195.062 108.47 194.732 108.376 194.449C108.264 194.114 108.242 193.797 108.161 193.461C108.062 193.052 107.919 192.774 107.919 192.344C107.919 191.1 107.919 189.856 107.919 188.612C107.919 187.8 108.146 186.885 107.954 186.082C107.688 184.962 107.543 183.824 107.255 182.712C107.074 182.012 107.067 181.276 106.951 180.568C106.894 180.223 106.865 179.726 106.865 179.373" stroke="#003049" stroke-width="4" stroke-linecap="round"/>
<path d="M106.443 179.163C105.394 179.163 104.347 179.092 103.296 179.092C102.528 179.092 101.761 179.127 101 179.022C100.365 178.934 99.7254 178.773 99.0986 178.635C98.6945 178.547 98.1823 178.282 97.7827 178.249C97.507 178.226 97.6881 177.389 97.7124 177.21C97.743 176.985 97.773 176.747 97.7944 176.523C97.8271 176.18 98.022 175.951 98.0795 175.621C98.1203 175.386 98.3093 175.114 98.3918 174.875C98.4852 174.605 98.6197 174.27 98.7784 174.032C98.908 173.837 98.9341 173.593 99.079 173.399C99.2707 173.144 99.4701 172.895 99.6647 172.642C99.965 172.251 100.31 171.864 100.539 171.431C100.763 171.008 101.13 170.546 101.176 170.065C101.217 169.631 101.561 168.617 101.242 168.198C101.144 168.069 101.149 167.862 101.098 167.706C101.035 167.517 100.868 167.323 100.75 167.16C100.484 166.791 99.8741 166.629 99.5163 166.336C98.9959 165.91 98.3863 166.418 97.9389 166.738C97.4847 167.063 97.0939 167.464 96.6348 167.781C96.209 168.074 95.7973 168.379 95.4126 168.726C95.101 169.006 94.8169 169.318 94.495 169.588C94.083 169.934 93.5997 170.173 93.1597 170.479C92.7822 170.741 92.3789 170.976 91.9805 171.205C91.5511 171.452 91.0671 171.553 90.6451 171.822C90.0942 172.173 89.4777 172.402 88.9427 172.782C88.6182 173.013 88.4603 173.369 88.1305 173.579C87.1564 174.199 86.0164 174.454 84.8507 174.454C83.9276 174.454 83.013 174.468 82.094 174.368C81.6186 174.316 81.0758 174.258 80.622 174.098C80.3147 173.99 80.0183 173.708 79.7005 173.575C79.3742 173.438 79.1177 173.268 78.8454 173.048C78.4815 172.753 78.0693 172.576 77.7326 172.24C77.4224 171.929 76.9995 171.578 76.7838 171.189C76.5052 170.688 76.1577 170.218 75.9013 169.706C75.6669 169.237 75.5679 168.711 75.3469 168.237C75.0417 167.583 74.7184 166.879 74.7456 166.145C74.7603 165.746 75.1651 165.305 75.3 164.934C75.3755 164.726 75.4502 164.538 75.5187 164.333" stroke="#003049" stroke-width="4" stroke-linecap="round"/>
<path d="M75.7295 164.825C75.7295 164.007 76.0107 163.218 76.0107 162.392C76.0107 161.805 76.2281 161.286 76.284 160.713C76.3338 160.203 76.4355 159.761 76.6042 159.273C77.0463 157.993 77.6485 156.563 78.6463 155.618C79.0375 155.247 79.3868 154.799 79.7513 154.407C80.1927 153.933 80.5665 153.355 81.0398 152.92C81.5285 152.47 81.9449 151.921 82.4767 151.526C83.1817 151.002 83.8626 150.467 84.6555 150.065C85.4758 149.65 86.3381 149.191 87.1154 148.695C87.6815 148.333 88.3162 147.855 88.9583 147.645C89.2926 147.535 89.5448 147.268 89.872 147.145C90.143 147.042 90.4548 147.047 90.7349 146.938C91.1587 146.772 91.609 146.86 92.0508 146.762C92.4774 146.667 92.8767 146.558 93.308 146.477C93.841 146.377 94.3247 146.249 94.8738 146.2C95.334 146.159 95.7936 146.117 96.2521 146.059C97.6717 145.88 99.1492 145.989 100.582 145.989C101.573 145.989 102.549 145.848 103.546 145.848C104.494 145.848 105.424 145.919 106.373 145.919C107.742 145.919 109.142 145.837 110.504 145.973C111.084 146.031 111.651 145.976 112.175 146.309C112.391 146.446 112.615 146.57 112.839 146.692C113.023 146.792 113.052 146.959 113.198 147.075C114.09 147.775 113.563 149.022 113.475 149.987C113.431 150.474 113.471 150.982 113.471 151.471C113.471 151.777 113.286 152.714 113.682 152.736C114.223 152.767 114.775 153.193 115.303 153.298C115.628 153.364 115.932 153.486 116.248 153.58C116.631 153.693 117.051 153.757 117.423 153.876C117.632 153.944 117.826 154.153 118.04 154.251C118.38 154.408 118.75 154.477 119.094 154.63C119.26 154.704 120.429 155.291 120.429 154.911C120.429 154.565 120.62 154.267 120.636 153.919C120.665 153.31 120.546 152.692 120.484 152.088C120.37 150.977 120.003 149.887 119.766 148.8C119.489 147.536 119.832 146.095 120.078 144.865" stroke="#003049" stroke-width="4" stroke-linecap="round"/>
<path d="M120.219 145.005C120.276 144.86 120.498 144.756 120.605 144.646C120.845 144.398 121.101 144.168 121.339 143.92C121.717 143.526 122.193 143.199 122.608 142.842C123.781 141.832 125.061 140.952 126.263 139.984C127.369 139.093 128.549 138.307 129.633 137.383C130.367 136.757 131.024 136.04 131.659 135.306C132.267 134.604 133.096 134.024 133.853 133.494C134.269 133.204 134.815 133.055 135.224 132.737C135.593 132.45 135.973 132.216 136.345 131.917C136.816 131.537 137.05 131.146 137.325 130.597C137.499 130.249 137.438 129.532 137.438 129.156C137.438 128.696 137.293 128.277 137.102 127.895C136.99 127.671 137.002 127.128 137.016 126.872C137.029 126.647 137.5 126.378 137.649 126.244C138.045 125.883 138.474 125.488 138.914 125.185C140.044 124.409 140.777 123.157 141.912 122.374C142.532 121.947 143.129 121.49 143.631 120.925C143.926 120.593 144.323 119.915 144.747 119.774" stroke="#003049" stroke-width="4" stroke-linecap="round"/>
<path d="M144.914 120.201C144.914 119.643 145.366 119.17 145.695 118.759C146.336 117.958 147.147 117.424 147.866 116.704C148.725 115.846 149.909 115.349 150.849 114.576C151.606 113.953 152.522 113.451 153.339 112.906C153.579 112.746 153.905 112.663 154.168 112.539C154.636 112.318 155.051 111.978 155.497 111.715C155.985 111.426 156.491 111.144 156.991 110.895C157.882 110.449 158.866 109.926 159.658 109.323C160.091 108.994 160.448 108.81 160.724 108.318C160.981 107.861 161.462 107.46 161.618 106.954C161.768 106.465 162.264 105.747 162.589 105.357C162.827 105.071 162.974 104.502 163.133 104.152C163.297 103.79 163.529 103.432 163.763 103.108C163.991 102.792 164.255 102.622 164.458 102.327C164.908 101.673 165.579 101.831 166.202 101.52C166.789 101.226 167.632 101.446 168.179 101.692C168.491 101.833 168.711 102.127 168.999 102.271C169.172 102.357 169.557 102.599 169.698 102.719C169.871 102.866 170.077 102.938 170.302 102.953C170.577 102.971 170.785 103.186 171.062 103.186C171.487 103.186 171.964 103.403 172.344 103.142C173.079 102.637 173.278 101.659 173.742 100.963C173.91 100.712 174.155 100.558 174.032 100.216C173.938 99.9549 173.165 99.7614 172.918 99.7067C172.343 99.5789 171.685 99.4563 171.096 99.4563C170.455 99.4563 169.667 99.4082 169.076 99.1455C168.664 98.9623 167.523 98.564 167.523 98.0578C167.523 97.3464 167.445 96.6082 167.445 95.8824" stroke="#003049" stroke-width="4" stroke-linecap="round"/>
<path d="M167.678 95.9601C167.81 95.7954 167.804 95.5521 167.928 95.373C168.085 95.1475 168.255 94.9401 168.416 94.717C168.783 94.2089 169.113 93.7683 169.733 93.5947C170.648 93.3385 171.876 93.4086 172.823 93.4739C173.532 93.5228 174.669 94.1817 175.093 94.7601C175.298 95.0387 175.364 95.3794 175.646 95.6104C175.975 95.8797 176.104 96.2355 176.38 96.5385C176.589 96.769 176.668 97.036 177.001 97.1859C177.163 97.2586 177.441 97.2406 177.623 97.2809C177.874 97.3368 178.056 97.4363 178.322 97.4363C178.972 97.4363 179.627 97.481 180.264 97.324C180.82 97.187 181.44 97.1255 182.017 97.1255C182.324 97.1255 182.894 96.9199 183.143 96.7327C183.48 96.4799 183.939 96.3215 184.218 96.0075C184.42 95.7803 184.635 95.6161 184.805 95.2997C185.004 94.9311 185.086 94.4658 185.353 94.1386C185.778 93.6195 186.188 93.1535 186.946 93.4566C187.481 93.6707 188.125 93.9647 188.694 94.0911C188.96 94.1501 189.197 94.5092 189.389 94.7558C189.702 95.1587 189.72 96.385 189.493 96.8147C189.337 97.108 189.018 97.4045 188.906 97.7298C188.819 97.9807 188.568 98.073 188.44 98.2909C188.317 98.4989 187.962 98.7564 187.727 98.8347C187.625 98.8688 187.507 99.0336 187.369 99.1024C187.172 99.2008 187.037 99.3455 186.83 99.4218C186.194 99.6559 185.908 100.082 185.586 100.661C185.497 100.822 185.659 101.163 185.72 101.338C185.824 101.638 186.001 101.81 186.109 102.081C186.212 102.338 186.626 102.472 186.851 102.547C187.217 102.669 187.448 102.84 187.645 103.186" stroke="#003049" stroke-width="4" stroke-linecap="round"/>
<path d="M187.801 103.729C188.709 103.729 189.619 103.963 190.537 103.963C191.345 103.963 191.99 104.156 192.773 104.273C193.085 104.32 193.531 104.586 193.818 104.74C194.291 104.992 194.745 105.162 195.242 105.361C195.841 105.601 196.377 105.983 197.051 105.983C197.449 105.983 198.37 105.954 198.6 105.551C198.716 105.348 198.902 105.35 198.911 105.05C198.922 104.675 199.059 104.329 199.066 103.963C199.091 102.681 199.042 101.343 197.97 100.466C197.698 100.244 197.158 100.1 196.951 99.8448C196.82 99.6836 196.383 99.7742 196.196 99.7239C195.634 99.5727 195.016 99.4171 194.482 99.1801C193.954 98.945 193.345 98.8264 192.79 98.6621C192.447 98.5604 192.157 98.2589 191.841 98.101C191.212 97.7867 190.908 96.7306 190.908 96.0378C190.908 94.7955 192.394 94.3245 193.352 93.8623C193.948 93.5742 194.499 93.1756 195.186 93.0897C195.539 93.0455 195.989 92.9907 196.308 92.8135C196.675 92.6098 196.999 92.4365 197.124 91.9977C197.243 91.5814 197.279 91.1149 197.279 90.6769C197.279 90.1423 197.435 89.6499 197.435 89.123C197.435 88.877 197.435 88.6309 197.435 88.3849C197.435 88.1363 197.279 87.9458 197.279 87.6857C197.279 87.3275 196.777 86.8382 196.425 86.7879C196.085 86.7394 195.734 86.3915 195.415 86.2656C194.796 86.0214 193.984 85.9158 193.438 85.5318C192.933 85.177 192.273 84.9268 191.668 84.7894C191.036 84.6457 190.707 84.4553 190.447 83.8485C190.367 83.6626 190.297 83.4239 190.287 83.2183C190.273 82.9307 190.167 82.7261 190.136 82.45C190.058 81.7532 190.054 81.0469 190.054 80.3436C190.054 79.1394 190.132 77.9158 190.132 76.7308C190.132 76.292 190.132 75.8532 190.132 75.4143C190.132 75.1689 190.135 74.6749 189.976 74.5165" stroke="#003049" stroke-width="4" stroke-linecap="round"/>
<path d="M190.054 73.8173C190.054 73.2054 189.585 72.5276 188.966 72.7339C188.694 72.8244 188.444 73.1233 188.193 73.2734C187.914 73.4412 187.601 73.6524 187.378 73.8906C186.932 74.3658 186.377 74.7162 185.94 75.2071C184.938 76.3353 183.228 77.0828 181.758 77.2962C180.627 77.4603 179.472 77.8574 178.322 77.8574C177.221 77.8574 177.312 75.8163 177.312 75.0604C177.312 73.5711 177.578 72.0759 177.696 70.5973C177.716 70.3539 177.786 69.8526 177.683 69.6218C177.505 69.2211 176.856 69.3803 176.44 69.3283C175.732 69.2397 175.064 69.0906 174.36 68.983C173.976 68.9244 173.549 68.7556 173.177 68.6377C172.604 68.456 172.006 68.4312 171.442 68.2406C170.751 68.0072 169.991 68.1344 169.31 67.8694C168.755 67.6537 168.143 67.8087 167.561 67.6794C166.885 67.5291 166.226 67.4831 165.559 67.2608C165.294 67.1726 165.113 67.0516 164.833 67.2219C164.307 67.5421 163.78 67.7169 163.327 68.1456C163.129 68.3334 162.865 68.4488 162.645 68.6118C162.51 68.712 162.471 68.859 162.317 68.9398C161.525 69.3565 160.666 69.8134 160.004 70.416C159.807 70.595 159.895 71.1269 159.913 71.3699C159.974 72.1927 160.358 72.9921 160.258 73.8302C160.178 74.5056 160.142 75.2394 160.142 75.9193C160.142 76.5478 160.275 76.9321 160.414 77.5466C160.554 78.1704 160.667 78.7705 160.845 79.381C161.032 80.0201 160.996 80.6553 160.996 81.3147C160.996 81.5433 160.531 81.6619 160.37 81.7464C159.948 81.9685 159.536 82.1963 159.127 82.4413C158.624 82.7433 158.153 83.124 157.617 83.365C157.216 83.5448 156.778 83.5749 156.382 83.7578C155.889 83.9854 155.379 83.8633 154.858 83.9952C154.015 84.2091 153.062 84.5694 152.312 85.0052C151.995 85.1889 151.651 85.4933 151.397 85.7476C151.131 86.0135 150.947 86.2902 150.741 86.6022C150.649 86.7414 150.44 86.9248 150.43 87.1029C150.415 87.3746 150.193 87.5895 150.037 87.7979C149.686 88.2655 149.445 88.8114 149.152 89.3172C148.98 89.6156 148.85 89.9158 148.682 90.215C148.52 90.5025 148.501 90.7389 148.483 91.0653C148.459 91.4985 148.253 91.8323 148.026 92.1876C147.892 92.3971 147.803 92.7887 147.555 92.9127C147.143 93.1187 146.533 92.8637 146.079 93.1026C145.404 93.4578 144.849 93.6292 144.059 93.6292C143.938 93.6292 143.503 93.6899 143.442 93.5774C143.109 92.9677 143.282 91.9474 143.282 91.2984C143.282 90.7387 143.282 90.179 143.282 89.6194C143.282 89.0536 143.115 88.5858 143.014 88.0396C142.842 87.1042 142.66 86.2773 142.66 85.316C142.66 84.8507 142.674 84.3826 142.66 83.9175C142.649 83.5166 141.37 83.6105 141.107 83.6067C140.789 83.6022 140.524 83.4573 140.209 83.4513C139.959 83.4466 139.686 83.4871 139.441 83.4341C138.963 83.3308 138.52 83.2959 138.033 83.2959C137.531 83.2959 137.097 83.1987 136.605 83.0974C136.284 83.0314 135.942 83.0232 135.629 82.942C135.32 82.8619 135.027 82.7066 134.705 82.6787C134.316 82.6448 133.79 82.618 133.458 82.4068C133.269 82.2864 132.86 82.3137 132.638 82.2859C132.384 82.2541 132.263 82.1195 132.047 82.0528C131.539 81.8968 131.194 81.6974 130.911 81.2586C130.704 80.9375 130.364 80.3441 130.057 80.1105C129.669 79.8158 129.141 79.3925 128.969 78.9278C128.737 78.3006 128.445 77.6217 128.986 77.0804C129.387 76.6795 128.986 76.0169 128.986 75.6042" stroke="#003049" stroke-width="4" stroke-linecap="round"/>
<path d="M128.909 75.915C128.323 75.915 128.209 74.5593 128.209 74.0935C128.209 73.7438 128.251 73.4128 128.369 73.0792C128.562 72.5314 128.769 72.3424 129.215 72.0303C130.359 71.2293 131.847 71.0273 133.104 70.3988C133.778 70.0617 134.533 69.9443 135.198 69.5787C135.44 69.4453 135.645 69.3589 135.91 69.2679C136.387 69.1038 136.772 68.759 137.222 68.5341C137.863 68.2135 138.486 67.9171 139.087 67.5241C139.663 67.147 140.154 66.6766 140.735 66.3155C141.919 65.5811 143.232 65.0715 144.447 64.3818C145.541 63.7612 146.576 63.0779 147.806 62.7071C148.645 62.454 149.527 62.3606 150.352 62.0855" stroke="#003049" stroke-width="4" stroke-linecap="round"/>
<path d="M150.663 62.1632C150.792 61.8408 151.334 61.9027 151.561 62.0423C151.932 62.2708 151.906 62.4414 151.906 62.8452C151.906 63.461 151.906 64.0768 151.906 64.6926C151.906 65.3657 151.949 65.966 152.2 66.5917C152.316 66.8835 152.356 66.9025 152.683 66.9025C153.099 66.9025 153.493 67.0024 153.917 66.9759C154.58 66.9345 155.237 66.9025 155.907 66.9025C156.569 66.9025 156.555 65.8207 156.568 65.3486C156.577 65.0276 156.792 64.7593 156.801 64.4508C156.81 64.1507 156.966 63.9102 157.146 63.6782C157.435 63.307 158.212 63.484 158.631 63.484C159.201 63.484 159.928 63.608 160.47 63.4063C160.745 63.3039 160.833 63.2851 161.039 63.1559C161.125 63.1026 161.21 62.4442 161.225 62.3229C161.307 61.6656 161.211 61.3169 160.608 61.015C159.975 60.6984 159.029 60.6136 158.627 59.9878C158.298 59.4771 158.58 58.8934 159.015 58.5547C159.269 58.3575 159.756 58.3468 160.064 58.2785C160.557 58.169 161.043 58.2526 161.54 58.1835C162.024 58.1164 162.404 57.89 162.904 57.89C163.224 57.89 163.566 57.9253 163.88 57.8469C164.4 57.7167 165.15 57.7104 165.58 57.4239" stroke="#003049" stroke-width="4" stroke-linecap="round"/>
<path d="M166.279 57.0354C166.614 56.6633 166.852 56.2295 167.212 55.87C167.766 55.3159 168.368 55.0791 169.111 54.86C170.091 54.5707 171.005 54.1334 171.951 53.755C172.547 53.5165 173.197 53.3362 173.777 53.0687C174.346 52.806 175.037 52.6721 175.56 52.3392C175.92 52.11 176.701 52.4335 177.062 52.5119C177.853 52.6839 178.59 52.9116 179.349 53.168C180.137 53.4337 180.929 53.5515 181.741 53.7291C182.392 53.8715 183.128 53.9163 183.726 54.2427C184.12 54.4578 184.262 54.7428 184.46 55.1276C184.741 55.6735 185.061 56.1495 185.392 56.6642C185.805 57.306 184.416 57.5428 184.037 57.6958C182.988 58.1189 181.985 58.6336 180.92 59.0166C180.567 59.1438 180.193 59.2587 179.85 59.4094C179.73 59.4623 179.695 59.5607 179.595 59.6295C179.457 59.7256 179.238 59.7075 179.082 59.7892C178.24 60.2299 177.58 60.8395 176.811 61.3863C176.28 61.7644 175.82 62.2009 175.253 62.5215C175.115 62.5994 174.738 62.8174 174.653 62.9402C174.549 63.0915 174.274 63.1123 174.135 63.2509C173.985 63.4013 173.529 63.5128 173.445 63.7171C173.315 64.0326 175.188 64.4743 175.413 64.5286C177.58 65.0516 179.866 64.9619 182.034 65.5041C182.961 65.7357 183.913 65.8551 184.84 66.0868C185.699 66.3015 186.552 66.7546 187.442 66.8205C187.765 66.8445 187.94 67.083 188.237 67.127C188.55 67.1734 188.925 67.2043 189.242 67.2133C189.463 67.2196 189.666 67.291 189.89 67.291C190.09 67.291 190.122 66.9658 190.175 66.7903C190.279 66.4461 190.17 66.131 190.347 65.7976C190.496 65.5182 190.49 65.1974 190.637 64.9214C190.881 64.4586 190.964 63.8797 191.219 63.4452C191.443 63.0648 191.458 62.5637 191.685 62.1805C191.936 61.7569 192.54 61.8065 193.023 61.7575C193.721 61.6869 194.417 61.6971 195.117 61.6971C195.667 61.6971 196.149 61.5865 196.697 61.546C197.614 61.478 198.897 61.4022 199.766 61.6194" stroke="#003049" stroke-width="4" stroke-linecap="round"/>
<path d="M200.075 61.2855C200.075 61.1382 199.983 61.0305 199.969 60.8887C199.952 60.7213 199.954 60.5323 199.969 60.3651C199.999 60.0152 200.312 59.8655 200.51 59.634C200.635 59.4889 200.753 59.3218 200.855 59.1607C200.951 59.0076 200.981 58.8329 201.07 58.6794C201.161 58.5241 201.174 58.3979 201.328 58.2746C201.463 58.1668 201.62 58.0457 201.729 57.9121C201.92 57.6772 202.142 57.5276 202.142 57.2092C202.142 56.8043 201.674 56.6265 201.346 56.5204C200.815 56.3484 200.213 56.319 199.657 56.319C199.137 56.319 198.664 56.2528 198.152 56.172C197.75 56.1085 197.422 55.9568 197.139 55.6665C196.858 55.3775 196.865 55.1185 196.732 54.7602C196.571 54.3261 196.414 53.908 196.414 53.439C196.414 53.1501 196.476 52.8742 196.487 52.5931C196.506 52.0715 196.5 51.5142 196.623 51.0061C196.728 50.5774 196.773 50.0354 196.668 49.6125" stroke="#003049" stroke-width="4" stroke-linecap="round"/>
<path d="M196.849 49.1774C196.532 48.8605 196.318 48.4957 195.878 48.3235C195.304 48.0989 194.744 47.8599 194.154 47.677C193.039 47.3309 191.894 47.0764 190.779 46.7304C190.313 46.5859 189.805 46.3867 189.399 46.1121C188.787 45.6977 188.061 45.4784 187.371 45.234C186.346 44.8709 185.329 44.4854 184.292 44.1566C183.971 44.0548 183.677 43.863 183.363 43.7376C182.978 43.5836 182.633 43.3817 182.268 43.1878C182.002 43.0467 181.796 42.935 181.579 42.7327C181.405 42.57 181.149 42.4771 180.955 42.3339C180.736 42.1732 180.466 42.1061 180.226 41.9915C180.121 41.9419 179.919 41.8808 179.847 41.8002C179.721 41.659 179.522 41.7221 179.362 41.7458C178.966 41.8044 178.573 41.9224 178.179 41.9996C177.831 42.0679 177.481 42.2288 177.136 42.3258C176.842 42.4087 176.587 42.5741 176.296 42.6682C175.715 42.8563 175.126 43.0941 174.514 43.1798C174.088 43.2394 173.656 43.2619 173.233 43.3248C172.858 43.3806 172.485 43.4496 172.105 43.4496C171.745 43.4496 171.399 43.4566 171.046 43.3771C170.818 43.3259 170.604 43.2529 170.369 43.2342C170.02 43.2062 169.685 43.1596 169.334 43.1596" stroke="#003049" stroke-width="4" stroke-linecap="round"/>
<path d="M169.334 43.0146C169.122 43.0382 168.844 43.1993 168.641 43.2724C168.182 43.4378 167.735 43.6376 167.276 43.8041C167.006 43.9018 166.744 44.0454 166.543 44.2472C166.303 44.4868 166.09 44.7162 165.779 44.8635C165.13 45.1711 164.466 45.4901 163.953 46.0034C163.796 46.1603 163.644 46.3498 163.453 46.4666C163.342 46.5346 163.097 46.6724 163.034 46.7848C162.974 46.8938 162.88 47.0072 162.829 47.1332C162.714 47.4144 162.666 47.7446 162.583 48.0375C162.473 48.4253 162.519 48.8489 162.519 49.2499C162.519 49.5025 162.521 49.752 162.49 50.0032C162.469 50.1755 162.41 50.3294 162.41 50.5046C162.41 50.7996 162.413 51.1413 162.462 51.4331C162.519 51.7687 162.509 52.1036 162.563 52.4401C162.642 52.9311 162.585 53.4409 162.517 53.9224C162.495 54.0724 162.613 54.3252 162.39 54.3252C162.164 54.3252 161.947 54.2889 161.721 54.2889C161.448 54.2889 161.178 54.27 160.905 54.2527C160.656 54.2368 160.419 54.153 160.17 54.1439C159.775 54.1295 159.385 54.1077 158.988 54.1077C158.556 54.1077 158.134 53.9989 157.701 53.9989C157.137 53.9989 156.543 53.9492 155.993 53.8176C155.746 53.7584 155.629 53.6958 155.468 53.5256C155.269 53.3168 155.24 53.0279 155.071 52.8026C154.875 52.5416 154.725 52.4528 154.725 52.1138C154.725 51.9077 154.725 51.7016 154.725 51.4955C154.725 50.9974 154.482 50.5259 154.471 50.0233C154.466 49.796 154.376 49.5538 154.489 49.3406C154.607 49.1183 154.704 48.9605 154.87 48.7766C155.526 48.0473 156.419 47.5919 157.137 46.9298C157.319 46.7625 157.521 46.6262 157.717 46.4767C157.888 46.347 158.112 46.2702 158.269 46.1242C158.593 45.8226 158.952 45.5616 159.292 45.2784C159.619 45.0064 159.929 44.7285 160.287 44.499C160.378 44.4406 160.441 44.353 160.525 44.2875C160.616 44.2168 160.725 44.1997 160.815 44.1183C160.915 44.027 160.969 43.937 161.024 43.8122C161.099 43.6452 160.783 43.5966 160.686 43.5604C160.087 43.3376 159.472 43.3772 158.843 43.3772C157.608 43.3772 156.373 43.3409 155.139 43.3409C153.405 43.3409 151.674 43.3772 149.939 43.3772C149.396 43.3772 148.852 43.3772 148.308 43.3772C147.916 43.3772 147.519 43.3515 147.132 43.4134C146.705 43.4817 146.551 44.0196 146.205 44.2291C146.012 44.3465 145.944 44.5071 145.811 44.6742C145.664 44.858 145.519 44.9929 145.424 45.2179C145.364 45.3598 145.227 45.5008 145.227 45.661C145.227 45.8685 145.12 46.1273 145.027 46.3135C144.969 46.431 144.987 46.5372 144.892 46.6318C144.785 46.7386 144.792 46.8192 144.792 46.9661" stroke="#003049" stroke-width="4" stroke-linecap="round"/>
<path d="M144.465 47.0023C144.465 47.1656 144.48 47.3748 144.393 47.5179C144.332 47.6183 144.207 47.8361 144.381 47.8361C145.381 47.8361 146.347 48.028 147.337 48.1342C147.734 48.1767 148.135 48.1624 148.534 48.1624C148.665 48.1624 148.997 48.0871 148.997 48.255C148.997 48.4784 148.834 48.6863 148.818 48.9055C148.802 49.1107 148.851 49.2842 148.743 49.4594C148.675 49.5698 148.562 49.7018 148.562 49.8299C148.562 49.9864 148.603 50.2371 148.723 50.3395C148.784 50.3918 148.871 50.6688 148.886 50.7524C148.925 50.9657 148.989 51.1728 148.997 51.3968C149.002 51.5441 149.009 51.6942 148.953 51.8318C148.87 52.0332 148.776 52.3084 148.562 52.4038C148.323 52.51 148.153 52.7515 147.907 52.859C147.812 52.9007 147.706 52.9645 147.619 53.0221C147.472 53.1202 147.313 53.1162 147.148 53.1651C146.467 53.367 145.669 53.0284 144.993 53.2537C144.648 53.3687 144.234 53.336 143.877 53.4108C143.595 53.4698 143.317 53.5082 143.031 53.5558C142.892 53.5791 142.749 53.5522 142.608 53.5719C142.417 53.5988 142.247 53.6364 142.053 53.6364C141.384 53.6364 140.797 53.7153 140.252 54.1358C139.987 54.3409 139.813 54.3942 139.716 54.7159C139.693 54.7924 139.64 54.8601 139.644 54.9414C139.654 55.1505 139.825 55.3291 139.825 55.5376C139.825 55.6522 139.799 55.7424 139.787 55.8518C139.748 56.2047 139.831 56.4972 139.467 56.6332C138.891 56.848 138.153 56.754 137.537 56.754C136.995 56.754 136.452 56.754 135.91 56.754" stroke="#003049" stroke-width="4" stroke-linecap="round"/>
<path d="M135.33 56.4277C133.566 56.4277 131.79 56.464 130.021 56.464C129.58 56.464 128.891 56.4816 128.496 56.2263C128.249 56.0665 128.205 55.7971 128.19 55.5154C128.163 55.0038 128.165 54.4823 128.152 53.9707C128.142 53.583 128.112 53.0401 127.898 52.7099C127.789 52.5408 127.783 52.3926 127.749 52.1944C127.711 51.967 127.585 51.725 127.572 51.4975C127.563 51.3364 127.536 51.1899 127.536 51.0262" stroke="#003049" stroke-width="4" stroke-linecap="round"/>
<path d="M128.116 50.3737C128.384 50.3737 128.607 50.425 128.869 50.4824C129.308 50.5789 129.763 50.5912 130.21 50.5912C130.933 50.5912 131.655 50.5991 132.377 50.5912C132.814 50.5864 133.247 50.5255 133.685 50.5167C134.111 50.5081 134.55 50.478 134.971 50.4099C135.421 50.3375 136.024 50.4028 136.436 50.1743C136.652 50.0542 136.821 49.9106 137.018 49.7554C137.222 49.5935 137.439 49.4368 137.614 49.2418C137.744 49.0966 137.845 48.9383 137.996 48.8129C138.137 48.6966 138.245 48.5487 138.383 48.4322C138.61 48.2411 138.888 48.1316 139.092 47.9086C140.094 46.8141 141.185 45.8115 142.274 44.8091C142.416 44.6785 142.632 44.5662 142.709 44.3902C142.719 44.3665 142.834 44.2276 142.826 44.219C142.79 44.1783 142.635 44.2193 142.58 44.1948C142.293 44.0673 142.064 43.8246 141.791 43.6671C141.379 43.4297 141.041 43.0999 140.623 42.8676C140.21 42.6386 139.576 42.2486 139.134 42.5796C138.308 43.1996 137.521 43.8741 136.724 44.5291C136.429 44.7709 136.18 45.0376 135.866 45.2622C135.516 45.512 135.167 45.8061 134.786 46.0074C134.54 46.1376 134.297 46.3421 134.041 46.4424C133.564 46.6295 133.152 46.6983 132.625 46.6357C131.418 46.4925 130.21 46.353 129.004 46.2068C128.338 46.1261 127.675 46.0791 127.012 45.9711C126.525 45.8919 126.108 45.7543 125.693 45.4777C125.577 45.4004 125.542 45.2497 125.453 45.1454C125.289 44.9531 125.092 44.7956 124.914 44.6177C124.793 44.4975 124.742 44.3471 124.648 44.2109C124.514 44.0188 124.338 43.8752 124.237 43.6591C124.015 43.1877 123.8 42.717 123.528 42.2714C123.426 42.1045 123.293 41.9586 123.194 41.7901C123.133 41.6859 123.11 41.5748 123.039 41.4719C122.879 41.2406 122.571 40.931 122.316 40.8033" stroke="#003049" stroke-width="4" stroke-linecap="round"/>
<path d="M122.751 40.2595C122.574 40.2595 122.382 40.1703 122.209 40.1346C122.04 40.1 121.866 40.0905 121.695 40.0601C120.963 39.9294 120.246 39.7045 119.524 39.4982" stroke="#003049" stroke-width="4" stroke-linecap="round"/>
<path d="M119.348 39.3511C118.142 39.0675 116.995 39.3511 115.803 39.3511C114.661 39.3511 113.368 39.4169 112.272 39.7302C111.853 39.85 111.462 39.7957 111.036 39.8846C110.677 39.9599 110.52 40.2212 110.25 40.3901C110.18 40.4339 109.883 40.9215 109.871 40.9937C109.812 41.3474 109.092 41.8805 108.804 42.0327C107.712 42.6108 106.954 43.5261 105.961 44.2088C105.36 44.6221 104.6 45.173 104.241 45.7882C104.103 46.0244 103.489 46.3059 103.434 46.4972C103.36 46.7551 103.159 46.9162 102.985 47.129C102.911 47.219 102.244 47.8028 102.557 47.8028C103.045 47.8028 103.564 47.6905 104.073 47.6905C106.461 47.6905 108.976 47.4719 111.303 47.9152C111.953 48.0389 112.272 48.4977 112.272 49.2068C112.272 49.7515 112.304 50.3058 112.272 50.8494C112.239 51.4034 109.614 52.492 111.837 52.492C112.221 52.492 112.581 52.6184 112.974 52.6184C113.565 52.6184 114.292 52.494 114.855 52.6815C115.84 53.0098 117.088 52.57 118.035 52.9342C118.84 53.2438 119.805 53.093 120.611 53.4748C121.124 53.7177 122.091 54.3608 122.127 55.0191C122.153 55.4771 122.202 56.3527 121.805 56.6055C121.042 57.0907 120.452 57.2935 119.481 57.2935C117.061 57.2935 114.713 57.3256 112.37 56.6617C112.034 56.5663 109.783 56.0833 109.745 55.7772C109.71 55.4986 109.366 55.3623 109.366 55.0191C109.366 54.7467 109.242 54.5727 109.057 54.3873C108.001 53.3312 105.849 52.8711 104.389 52.8711C103.769 52.8711 102.717 52.391 102.114 52.1902C101.428 51.9614 100.706 51.6785 100.015 51.4812C99.3778 51.299 99.2964 50.6357 98.8783 50.2176C98.3544 49.6938 97.3263 49.8231 96.646 49.8386C95.9884 49.8535 95.3277 50.015 94.6805 50.1193C93.5574 50.3005 92.4934 50.344 91.3532 50.344C90.2815 50.344 89.2098 50.344 88.1381 50.344" stroke="#003049" stroke-width="4" stroke-linecap="round"/>
<path d="M30.0246 125.344C30.2791 125.4 30.1993 126.213 30.2299 126.397C30.2955 126.79 30.2593 127.208 30.2593 127.606C30.2593 128.102 30.2593 128.597 30.2593 129.093C30.2593 129.737 30.3922 130.339 30.432 130.977C30.4829 131.79 30.67 132.563 30.67 133.383C30.67 133.754 30.6585 134.057 30.8787 134.377C30.9806 134.525 31.2219 134.603 31.3872 134.644C31.807 134.749 32.2362 134.856 32.6618 134.934C33.2394 135.041 33.876 135.118 34.4255 135.332C34.75 135.458 35.0225 135.654 35.3611 135.759C35.6633 135.853 35.9612 135.918 36.2478 136.049C36.7085 136.26 37.0668 136.502 37.4898 136.786C37.8805 137.048 38.1029 137.166 37.9918 137.666C37.7511 138.749 37.3193 139.875 37.3626 141.001C37.3845 141.57 37.6383 142.088 37.6984 142.647C37.7504 143.131 37.7115 143.635 37.7115 144.121C37.7115 144.707 37.8612 145.21 38.0375 145.764C38.1625 146.157 38.1809 146.628 38.1809 147.042C38.1809 147.481 38.2971 147.938 38.2102 148.372C38.123 148.808 37.8515 149.295 37.6528 149.692C37.3187 150.36 37.0073 150.936 37.0073 151.69C37.0073 151.825 37.0405 151.867 37.1182 151.984C37.1858 152.085 37.1805 152.137 37.0693 152.186C37.0631 152.189 36.9626 152.218 36.9845 152.218C37.2085 152.218 37.5556 152.315 37.6821 152.512C37.8291 152.741 37.8912 153.072 38.0635 153.275C38.2845 153.535 38.3404 153.744 38.4515 154.041C38.5755 154.372 38.7461 154.731 38.9437 155.022C39.0203 155.135 39.1297 155.335 39.2371 155.4C39.4308 155.519 39.5496 155.891 39.7065 156.059C39.9021 156.268 40.0892 156.517 40.2672 156.743C40.4696 157.001 40.588 157.141 40.8801 157.291C41.0443 157.375 41.214 157.493 41.3495 157.617C41.4648 157.723 41.6196 157.729 41.7016 157.852" stroke="#003049" stroke-width="4" stroke-linecap="round"/>
<path d="M41.4217 158.671C41.4714 159.168 41.8958 159.748 42.0708 160.214C42.1555 160.44 42.2144 160.659 42.3204 160.877C42.4267 161.095 42.6378 161.312 42.7108 161.531C42.8346 161.902 43.2463 162.175 43.3916 162.556C43.5477 162.966 44.0291 163.368 44.363 163.637C44.5771 163.809 44.7193 164.05 44.9349 164.218C45.0904 164.339 45.3034 164.343 45.4751 164.436C45.8628 164.644 46.4565 164.708 46.8958 164.717C47.6884 164.733 48.4245 164.663 49.188 164.472C49.8066 164.317 50.6613 163.814 50.9401 163.201C51.2459 162.528 51.0627 161.512 51.0627 160.791C51.0627 160.249 50.8159 159.75 50.7359 159.243C50.6524 158.714 50.1456 158.371 49.8371 157.977C49.308 157.3 48.5667 156.747 47.958 156.138C47.5747 155.755 47.1226 155.409 46.796 154.976C46.5435 154.641 46.3084 154.277 45.9971 153.996C45.4364 153.489 45.1077 152.783 44.6853 152.171C44.1451 151.388 43.6256 150.287 43.4189 149.357C43.3317 148.964 43.2119 148.602 43.0966 148.217C43.0184 147.957 42.8444 147.746 42.8061 147.478C42.7184 146.864 42.5743 146.224 42.5655 145.598C42.5427 143.976 42.4889 142.318 42.7335 140.728C42.8453 140.001 42.8988 139.302 43.7457 139.148C44.3623 139.036 45.1521 138.949 45.7701 139.126C46.01 139.194 46.319 139.144 46.5645 139.144C47.0147 139.144 46.8982 139.191 47.0229 139.548C47.214 140.094 47.3798 140.635 47.5494 141.186C47.8731 142.238 48.2149 143.421 48.2802 144.532C48.3318 145.408 48.4482 146.228 48.4482 147.114C48.4482 147.405 48.4482 147.695 48.4482 147.986C48.4482 148.409 48.5596 148.719 48.6207 149.116C48.6641 149.399 48.8492 149.905 48.9566 150.174C49.1103 150.558 49.2761 150.973 49.5058 151.318C49.7164 151.634 49.8237 152.046 50.0005 152.38C50.1523 152.667 50.4583 152.89 50.636 153.197C51.1701 154.119 52.2089 154.747 52.8602 155.584C53.4679 156.366 54.2516 156.981 54.8392 157.772C55.1713 158.219 55.5959 158.696 55.8378 159.202C56.0702 159.688 56.2418 160.154 56.4551 160.659C56.6563 161.136 56.8511 161.661 57.1451 162.089C57.3412 162.374 57.6573 162.71 57.7624 163.051C57.9005 163.5 58.2792 163.824 58.3978 164.272C58.4811 164.587 58.3353 164.836 58.2526 165.126C58.1651 165.432 57.8833 165.647 57.7805 165.924C57.6532 166.268 57.5098 166.604 57.3539 166.955C57.1299 167.459 56.6826 168.051 56.3326 168.471C56.0651 168.792 56.1367 170.002 56.328 170.355C56.5168 170.702 56.7469 171.013 57.0316 171.262C57.4233 171.605 57.6874 172.103 58.0529 172.479C58.3435 172.778 58.6263 173.064 58.8654 173.409C59.0505 173.677 59.5599 174.083 59.5599 174.399C59.5599 174.66 59.9268 175.183 60.0682 175.402C60.2097 175.622 60.4367 175.843 60.6538 175.988C60.7666 176.063 60.8213 176.322 60.9443 176.437C61.0986 176.582 61.1859 176.788 61.321 176.954C61.4193 177.075 61.7422 177.247 61.7658 177.381C61.798 177.563 62.4433 178.21 62.5829 178.28" stroke="#003049" stroke-width="4" stroke-linecap="round"/>
<path d="M62.256 178.77C62.3789 178.785 62.4041 178.922 62.5647 178.933C62.835 178.953 63.0229 179.197 63.3 179.242C63.658 179.3 64.0371 179.253 64.3985 179.26C64.9443 179.272 65.4747 179.416 66.0099 179.501C67.6301 179.757 69.2628 180.145 70.7714 180.794C72.187 181.404 73.8244 181.875 75.3785 181.875C75.8042 181.875 76.5312 181.852 76.9445 181.975C77.3535 182.096 77.6163 182.139 77.6163 181.666C77.6163 181.166 77.6446 179.93 78.3698 179.914C79.071 179.898 79.7746 179.914 80.4759 179.914C81.0453 179.914 81.5925 180.218 82.1554 180.304C82.4899 180.356 83.0908 180.173 83.3355 180.404C83.723 180.77 83.8258 181.291 83.8258 181.798C83.8258 182.736 83.8258 183.674 83.8258 184.612C83.8258 185.793 85.5433 185.527 86.2769 185.697C86.8432 185.827 87.4151 185.797 87.9926 185.797C88.7718 185.797 89.4376 185.93 90.1986 186.078C91.1719 186.267 92.1902 186.45 93.14 186.741C93.565 186.871 93.9267 187.111 94.361 187.226C94.5767 187.283 94.9752 187.345 95.1644 187.467C95.4951 187.68 95.7447 187.861 96.1267 188.003C96.4697 188.13 96.7655 188.484 97.0617 188.697C97.2896 188.861 97.6193 189.032 97.788 189.264C97.9558 189.495 98.0541 189.786 98.2237 190.027C98.8543 190.922 99.1759 191.996 99.9622 192.782C100.437 193.257 100.943 193.699 101.456 194.13C101.825 194.441 102.441 194.848 102.704 195.242C103.064 195.783 103.889 196.097 104.174 196.668C104.385 197.089 105.041 197.386 105.069 197.889C105.085 198.174 105.369 198.305 105.395 198.56C105.424 198.836 105.359 199.044 105.559 199.273C105.75 199.492 105.906 199.863 106.131 200.013" stroke="#003049" stroke-width="4" stroke-linecap="round"/>
<path d="M106.213 200.34C107.195 200.354 108.168 200.557 109.154 200.603C109.863 200.636 110.56 200.693 111.265 200.576C111.745 200.496 112.21 200.335 112.694 200.276C113.717 200.152 114.781 200.129 115.785 200.344C116.334 200.462 116.786 200.622 117.351 200.671C117.714 200.703 117.956 200.993 118.336 200.993C118.607 200.993 118.859 201.18 119.122 201.239C119.212 201.259 119.611 201.28 119.675 201.338C120.161 201.78 120.299 202.073 120.511 202.709C120.652 203.133 120.666 203.493 120.674 203.935C120.682 204.351 120.837 204.746 120.837 205.165C120.837 206.815 120.102 208.28 120.102 209.917C120.102 210.533 119.989 211.283 120.166 211.878C120.326 212.42 119.905 212.933 119.566 213.249C119.036 213.744 118.278 213.886 117.687 214.311C117.157 214.693 116.586 215.199 115.999 215.473C115.575 215.671 115.391 216.065 115.018 216.299C114.777 216.451 114.58 216.573 114.365 216.78C114.045 217.089 113.738 217.439 113.452 217.788C113.195 218.103 112.925 218.427 112.549 218.641C112.273 218.799 112.094 218.86 111.768 218.968" stroke="#003049" stroke-width="4" stroke-linecap="round"/>
<path d="M111.115 219.622C111.115 220.113 111.278 220.569 111.278 221.056C111.278 221.503 111.266 221.953 111.278 222.4C111.302 223.32 111.36 224.247 111.36 225.178C111.36 226.167 111.36 227.157 111.36 228.146C111.36 228.796 111.365 229.584 111.16 230.198C111.016 230.63 110.892 231.01 110.706 231.428C110.503 231.885 110.32 232.33 110.152 232.794C110.002 233.213 109.807 233.715 109.807 234.17C109.807 234.924 110.711 235.537 111.278 235.899C112.149 236.454 112.901 237.128 113.629 237.824C114.242 238.408 114.799 238.991 115.245 239.721C115.544 240.209 115.982 240.542 116.326 240.992C116.437 241.137 116.461 241.281 116.543 241.437C116.655 241.648 116.884 241.759 117.043 241.927C117.407 242.312 117.715 242.85 118.06 243.27C118.321 243.589 118.505 243.876 118.722 244.215C118.824 244.373 119.014 244.468 119.104 244.623C119.182 244.759 119.201 244.907 119.303 245.05C119.461 245.27 119.633 245.465 119.843 245.635C119.975 245.742 119.943 245.915 120.034 246.057C120.322 246.507 120.825 246.84 121.064 247.319C121.212 247.615 121.351 247.907 121.555 248.182C121.979 248.754 122.392 249.335 122.807 249.907C122.952 250.105 123.092 250.312 123.243 250.506C123.453 250.774 123.803 250.944 123.969 251.241C124.076 251.432 124.269 251.68 124.269 251.895" stroke="#003049" stroke-width="4" stroke-linecap="round"/>
<path d="M123.476 251.917C123.611 252.068 123.608 252.31 123.642 252.498C123.694 252.784 123.719 253.089 123.725 253.379C123.729 253.537 123.805 253.678 123.808 253.836C123.812 253.998 123.796 254.163 123.811 254.325C123.846 254.712 123.894 255.085 123.965 255.469C124.016 255.744 124.086 256.031 124.182 256.294C124.224 256.411 124.388 256.522 124.482 256.592C124.827 256.85 125.199 257.03 125.593 257.198C125.947 257.35 126.298 257.5 126.654 257.646C127.05 257.807 127.468 257.872 127.854 258.061C128.53 258.393 129.231 258.674 129.911 258.995C130.432 259.241 131.019 259.432 131.489 259.763C132.138 260.222 132.996 260.385 133.699 260.762C134.143 261.001 134.626 261.146 135.073 261.38C135.349 261.525 135.654 261.606 135.899 261.798C136.078 261.938 136.279 262.046 136.462 262.181C136.676 262.339 136.855 262.572 137.055 262.75C137.22 262.899 137.417 263.007 137.59 263.147C137.803 263.32 137.97 263.534 138.206 263.689C138.364 263.793 138.422 263.828 138.547 263.957C138.749 264.164 138.982 264.366 139.204 264.552C139.529 264.822 139.824 265.151 140.125 265.451C140.258 265.585 140.438 265.713 140.54 265.866" stroke="#003049" stroke-width="4" stroke-linecap="round"/>
<path d="M140.581 266.24C140.581 266.968 140.544 267.739 140.706 268.45C140.852 269.09 140.904 269.818 140.913 270.475C140.923 271.142 140.913 271.81 140.913 272.477C140.913 273.063 141.005 273.725 140.904 274.304C140.84 274.671 140.845 275.026 140.828 275.397C140.804 275.913 140.709 276.426 140.674 276.942C140.631 277.556 140.664 278.181 140.664 278.797C140.664 279.845 140.623 280.887 140.623 281.934" stroke="#003049" stroke-width="4" stroke-linecap="round"/>
<path d="M140.121 282.127C140.121 283.745 140.064 285.325 140.416 286.906C140.478 287.185 140.552 287.449 140.601 287.733C140.663 288.096 140.615 288.469 140.657 288.835C140.745 289.609 140.854 290.413 140.854 291.19C140.854 291.797 140.911 292.398 140.911 293.007C140.911 293.511 140.979 294.067 140.867 294.56C140.812 294.8 140.798 295.101 140.798 295.346C140.798 295.433 140.741 296.086 140.741 295.769" stroke="#003049" stroke-width="4" stroke-linecap="round"/>
<path d="M140.688 296.49C141.533 296.49 142.04 297.36 142.844 297.402C143.342 297.428 143.672 297.493 144.037 297.817C144.197 297.959 144.088 298.648 144.088 298.854C144.088 299.724 144.088 300.595 144.088 301.466C144.088 301.861 144.239 302.568 143.968 302.839C143.691 303.116 143.438 303.253 143.346 303.664C143.186 304.383 143.425 305.244 143.425 305.981C143.425 306.141 143.167 306.709 143.01 306.792C142.676 306.969 142.761 307.237 142.761 307.585C142.761 307.952 142.761 308.319 142.761 308.686C142.761 308.892 142.761 309.097 142.761 309.303C142.761 309.508 142.584 309.365 142.475 309.474C142.01 309.939 142.283 311.013 142.346 311.584C142.384 311.921 142.46 312.431 142.678 312.703C142.783 312.835 142.984 312.872 143.093 313.012C143.232 313.19 143.484 313.517 143.673 313.639C143.842 313.748 143.951 313.977 144.129 314.113C144.426 314.34 144.658 314.619 144.95 314.86C145.256 315.113 145.705 315.321 145.913 315.684C146.111 316.032 146.518 316.346 146.742 316.707C147.045 317.196 147.389 317.759 147.838 318.136C148.487 318.679 148.401 319.167 148.401 319.969C148.401 320.86 148.287 321.873 148.479 322.738C148.549 323.055 148.723 323.36 148.732 323.692C148.742 324.046 148.905 324.483 148.797 324.835C148.679 325.218 148.248 325.447 148.115 325.807C147.967 326.209 147.788 326.475 147.732 326.922C147.688 327.278 147.571 327.547 147.571 327.922C147.571 328.309 147.571 328.696 147.571 329.083" stroke="#003049" stroke-width="4" stroke-linecap="round"/>
<path d="M147.239 329C147.239 330.084 147.239 331.168 147.239 332.253C147.239 332.551 147.239 332.849 147.239 333.147C147.239 333.434 147.377 333.553 147.41 333.815C147.507 334.591 148.258 335.225 148.548 335.902C148.891 336.702 149.3 337.605 149.764 338.335C150.198 339.017 150.407 339.83 150.852 340.509C151.122 340.922 151.326 341.355 151.593 341.772C151.892 342.236 152.21 342.594 152.464 343.062C152.771 343.627 153.205 344.056 153.588 344.55C153.775 344.79 153.989 344.98 154.164 345.25C154.256 345.391 154.41 345.461 154.496 345.596C154.647 345.83 154.726 346.105 154.888 346.333C155.285 346.892 155.62 347.491 155.989 348.065C156.13 348.285 156.339 348.47 156.482 348.692C156.679 348.997 156.944 349.383 157.191 349.65C157.814 350.323 158.266 351.005 158.979 351.604C159.387 351.947 159.872 352.227 160.255 352.594C160.545 352.872 160.987 353.279 161.338 353.465C162.717 354.195 163.902 355.451 165.153 356.285" stroke="#003049" stroke-width="4" stroke-linecap="round"/>
<path d="M165.402 357.031C166.016 357.031 166.6 357.114 167.217 357.114C167.86 357.114 168.957 357.299 169.493 356.87C169.799 356.626 170.342 356.858 170.71 356.718C171.026 356.598 171.52 356.783 171.857 356.783C172.212 356.783 172.536 357.014 172.884 357.077C173.731 357.231 174.366 357.163 175.183 357.027C175.327 357.003 175.381 356.811 175.524 356.787C175.622 356.771 175.919 356.84 175.934 356.7C175.951 356.552 175.907 356.39 175.939 356.244C175.977 356.074 176.1 355.977 176.1 355.787" stroke="#003049" stroke-width="4" stroke-linecap="round"/>
<path d="M330.224 304.372C330.193 304.499 328.319 304.372 328.047 304.372C327.196 304.372 326.352 304.079 325.501 304.079C325.357 304.079 324.883 304.153 324.813 304.02C324.648 303.709 324.687 303.305 324.637 302.964C324.439 301.627 324.676 300.252 324.428 298.915C324.071 296.987 324.239 294.947 324.239 292.988C324.239 292.76 324.328 292.334 324.167 292.154C324.039 292.01 323.984 291.85 323.832 291.727C323.652 291.581 323.474 291.408 323.313 291.241C322.943 290.857 322.636 290.363 322.361 289.911C322.044 289.388 321.694 288.843 321.312 288.366C321.17 288.189 321.02 287.948 320.836 287.825" stroke="#003049" stroke-width="4" stroke-linecap="round"/>
<path d="M320.484 287.707C320.484 287.054 320.076 286.783 319.708 286.286C319.292 285.726 318.89 285.174 318.489 284.601C318.138 284.099 318.026 283.455 317.84 282.896C317.587 282.136 317.609 281.236 317.609 280.444C317.609 279.35 317.469 278.263 317.432 277.171C317.42 276.797 317.306 276.401 317.23 276.034C317.143 275.608 317.198 275.136 317.198 274.704C317.198 273.42 317.139 272.144 317.139 270.867" stroke="#003049" stroke-width="4" stroke-linecap="round"/>
<path d="M316.71 270.758C317.189 270.698 316.953 268.749 316.661 268.44C315.904 267.641 314.895 266.739 313.95 266.183C313.143 265.709 312.602 264.511 312.209 263.694C311.611 262.45 311.522 261.425 311.522 260.052C311.522 259.312 311.655 258.864 311.921 258.169C312.063 257.798 312.281 257.462 312.43 257.096C312.515 256.887 312.76 256.801 312.853 256.569C313.088 255.982 313.581 255.305 313.95 254.803C314.3 254.328 314.398 253.676 314.809 253.233C315.189 252.822 315.335 252.226 315.692 251.798C316.089 251.321 316.573 250.459 316.796 249.873C317.004 249.323 317.318 248.872 317.593 248.352C317.967 247.642 318.672 247.291 319.07 246.648C319.536 245.896 318.838 245.221 318.525 244.544C318.239 243.928 317.759 243.462 317.335 242.944C317.095 242.65 316.948 242.29 316.704 242C315.734 240.848 314.906 239.7 314.214 238.37C313.822 237.617 313.171 236.971 312.853 236.175C312.74 235.893 312.47 235.454 312.289 235.212C311.477 234.13 310.84 232.793 310.173 231.613C309.7 230.776 309.309 229.885 308.873 229.037C308.575 228.458 308.192 227.918 307.855 227.357C307.574 226.889 306.997 226.304 306.88 225.781C306.821 225.514 306.55 225.145 306.439 224.849C306.323 224.541 306.161 224.284 306.108 223.966C306.005 223.349 306.004 222.731 306.004 222.084" stroke="#003049" stroke-width="4" stroke-linecap="round"/>
<path d="M305.452 221.753C305.847 221.753 305.783 221.623 305.783 221.262C305.783 220.724 305.893 220.202 305.893 219.668C305.893 218.894 306.277 218.187 306.341 217.387C306.421 216.385 306.666 215.488 306.666 214.468C306.666 213.487 306.555 212.529 306.555 211.55C306.555 211.031 306.666 210.483 306.666 209.943C306.666 209.512 306.703 209.447 306.31 209.213C305.46 208.709 304.483 208.288 303.526 208.042C302.734 207.839 301.956 207.625 301.135 207.625C300.538 207.625 299.868 207.714 299.295 207.515C298.81 207.346 298.283 207.405 297.775 207.405C297.243 207.405 296.721 207.192 296.181 207.184C295.879 207.179 295.575 207.195 295.273 207.184C294.839 207.168 294.867 207.011 294.623 206.785C294.214 206.405 294.091 206.013 293.777 205.577C293.56 205.277 293.206 204.976 293.084 204.651C292.541 203.203 290.575 203.321 289.387 203.321C288.011 203.321 286.636 203.321 285.26 203.321C284.601 203.321 283.937 203.325 283.439 203.824C283.363 203.899 283.382 203.998 283.378 204.093C283.362 204.398 283.146 204.625 282.985 204.866C282.744 205.227 282.6 205.674 282.323 205.976C282.101 206.218 281.545 206.941 281.268 207.018C279.947 207.385 278.569 206.975 277.27 207.466C276.927 207.595 276.445 207.515 276.093 207.515C275.631 207.515 275.187 207.625 274.744 207.625C272.785 207.625 270.495 208.077 268.625 207.429C267.918 207.185 267.597 207.633 267.104 208.171C266.77 208.535 265.206 208.288 264.676 208.288C263.883 208.288 262.722 208.333 262.015 208.012C261.557 207.804 260.899 207.916 260.475 207.681C259.282 207.018 258.543 205.847 257.722 204.78C257.191 204.089 256.162 203.561 255.405 203.161C255.025 202.961 254.83 202.666 254.552 202.37C254.047 201.833 253.497 201.373 253.05 200.782C252.745 200.379 252.39 200.134 252.038 199.783C251.557 199.302 251.2 198.709 250.732 198.219C250.154 197.613 249.516 196.867 249.052 196.171C248.322 195.076 246.715 194.323 246.293 193.056" stroke="#003049" stroke-width="4" stroke-linecap="round"/>
<path d="M245.851 192.836C245.626 192.651 245.409 192.502 245.189 192.308C244.805 191.971 244.627 191.391 244.306 190.984C244.057 190.668 243.707 190.32 243.558 189.941C243.479 189.741 243.252 189.552 243.209 189.359C243.025 188.531 243.202 187.497 243.202 186.655C243.202 185.566 243.017 184.284 243.227 183.209C243.499 181.82 243.568 180.434 243.754 179.033C243.849 178.325 243.951 177.629 243.754 176.942C243.662 176.62 243.619 176.128 243.399 175.863C243.155 175.571 243.14 174.999 243.202 174.624C243.253 174.323 244.948 174.186 245.238 174.128C246.224 173.931 245.851 171.783 245.851 170.982C245.851 170.852 245.873 170.634 246.011 170.565C246.24 170.451 246.242 170.341 246.452 170.21C247.048 169.837 247.13 169.474 247.182 168.824C247.232 168.201 247.389 168.11 246.949 167.714C246.497 167.308 245.28 167.009 244.662 167.009C244.102 167.009 243.542 167.009 242.982 167.009C242.5 167.009 242.333 166.484 242.154 166.126C241.864 165.546 241.988 164.779 241.988 164.139C241.988 163.424 241.878 162.804 241.878 162.097C241.878 161.771 241.782 161.412 242.044 161.208C242.38 160.947 242.541 160.749 242.957 160.583C243.179 160.494 243.447 160.278 243.644 160.141C243.902 159.962 244.145 159.982 244.417 159.859C244.951 159.619 245.441 159.384 245.962 159.123C246.56 158.824 246.823 158.06 247.2 157.541C247.644 156.932 248.411 156.425 248.893 155.806C249.335 155.237 249.702 154.913 250.266 154.537" stroke="#003049" stroke-width="4" stroke-linecap="round"/>
<path d="M250.045 154.647C250.85 154.616 250.95 153.913 251.591 153.568C252.222 153.228 252.601 152.662 253.16 152.268C253.924 151.731 254.683 151.103 255.509 150.625C256 150.341 256.387 149.91 256.895 149.631C257.288 149.415 257.713 149.218 258.041 148.908C258.288 148.675 258.747 148.44 259.047 148.295C259.395 148.126 259.833 148.218 260.144 147.976C260.369 147.801 260.744 147.892 260.972 147.749C261.361 147.506 261.301 147.218 261.389 146.786C261.586 145.824 261.634 144.989 261.634 143.99C261.634 142.723 261.634 141.456 261.634 140.189C261.634 139.347 261.414 138.533 261.414 137.705C261.414 136.958 262.002 136.884 262.517 136.442C262.765 136.23 263.516 135.986 263.836 135.89C264.108 135.809 264.268 135.637 264.51 135.504C264.796 135.347 265.135 135.384 265.412 135.222C266.428 134.626 267.565 134.282 268.582 133.621C269.159 133.246 269.665 132.869 270.158 132.377C270.432 132.103 270.891 132.289 271.237 132.328C271.967 132.41 272.669 132.529 273.395 132.579C274.904 132.683 276.431 132.982 277.945 133.014C279.842 133.055 281.605 132.573 283.488 132.573" stroke="#003049" stroke-width="4" stroke-linecap="round"/>
<path d="M283.929 132.021C284.549 131.463 285.479 131.216 286.026 130.611C286.367 130.235 286.997 129.969 287.283 129.587C287.494 129.307 287.853 129.283 288.234 129.262C288.364 129.255 288.441 129.054 288.565 128.992C288.754 128.898 289.079 128.854 289.289 128.826C290.089 128.72 290.963 128.82 291.772 128.82C292.469 128.82 293.137 128.71 293.838 128.71C295.105 128.71 296.373 128.71 297.64 128.71C299.336 128.71 301.047 128.71 302.742 128.71C303.181 128.71 303.55 128.392 304.017 128.379C304.342 128.37 304.604 128.174 304.918 128.109C305.335 128.023 305.765 128.116 306.175 128.042C306.52 127.979 306.806 127.937 307.163 127.937C307.3 127.937 307.739 128.437 307.794 128.575C307.862 128.746 308.04 128.845 308.15 128.986C308.273 129.144 308.2 129.406 308.272 129.593C308.495 130.164 308.432 130.749 308.432 131.359C308.432 132.412 308.653 133.445 308.653 134.504C308.653 135.441 308.837 136.573 308.597 137.484C308.426 138.136 308.629 138.027 309.155 138.098C309.934 138.201 310.794 138.589 311.547 138.84C312.672 139.215 313.914 139.614 314.968 140.164C315.449 140.415 316.12 140.374 316.648 140.495C317.244 140.631 317.921 140.701 318.531 140.747C319.66 140.83 320.777 140.797 321.836 141.182C322.092 141.275 322.181 141.532 322.455 141.623C322.918 141.778 323.548 142.103 323.945 142.371C324.389 142.671 324.87 142.913 325.312 143.218C325.455 143.316 325.745 143.322 325.846 143.414C326.066 143.614 326.075 143.761 326.422 143.831" stroke="#003049" stroke-width="4" stroke-linecap="round"/>
<path d="M326.091 143.61C326.665 143.61 327.071 143.645 327.526 144.027C327.783 144.243 328.002 144.603 328.366 144.603C328.768 144.603 329.172 144.615 329.574 144.603C329.733 144.599 329.941 142.587 330.065 142.261C330.342 141.528 330.398 140.526 330.531 139.747C330.713 138.672 330.798 137.235 332.211 137.209C334.618 137.163 337.148 137.058 339.385 138.042C339.844 138.245 340.23 138.389 340.709 138.557C341.081 138.688 341.739 138.715 342.052 138.932C342.431 139.194 342.834 139.268 343.052 139.686C343.284 140.134 343.546 140.577 343.806 141.01C344.433 142.056 345.625 142.726 346.731 143.156C347.314 143.383 347.834 143.675 348.411 143.917C349.006 144.166 349.593 144.067 350.195 144.223C352.352 144.782 354.595 144.64 356.811 144.487C357.837 144.416 358.81 144.162 359.853 144.162C360.282 144.162 360.697 144.203 361.103 144.052C361.382 143.948 361.664 143.831 361.962 143.831" stroke="#003049" stroke-width="4" stroke-linecap="round"/>
<path d="M362.581 142.897C362.196 142.032 361.928 141.09 361.581 140.203C361.3 139.486 360.788 138.627 360.609 137.912C360.33 136.794 360.388 135.681 360.026 134.594C359.354 132.579 359.227 130.586 358.582 128.651" stroke="#003049" stroke-width="4" stroke-linecap="round"/>
<path d="M358.082 129.651C355.7 129.651 352.986 130.012 350.64 129.595C349.87 129.458 348.697 129.465 348.14 128.845C347.558 128.198 347.551 127.263 347.21 126.513C346.596 125.162 344.75 123.815 344.572 122.389C344.427 121.228 343.158 116.244 343.836 115.905" stroke="#003049" stroke-width="4" stroke-linecap="round"/>
<path d="M341.836 116.654C341.311 116.713 341.27 117.294 340.712 117.418C340.235 117.524 339.753 117.715 339.337 117.96C338.435 118.49 338.923 120.341 338.587 121.264C337.897 123.163 337.131 125.063 336.574 127.013C336.513 127.227 336.217 128.411 336.144 128.346C335.882 128.113 335.48 127.345 335.338 127.026C335.039 126.354 333.873 125.066 333.228 124.708C332.183 124.127 329.34 122.435 329.34 120.903" stroke="#003049" stroke-width="4" stroke-linecap="round"/>
<path d="M329.483 119.861C329.106 120.039 329.242 119.62 329.236 119.348C329.227 118.967 329.153 118.597 329.153 118.211C329.153 117.438 328.838 116.749 328.823 115.983C328.808 115.18 328.823 114.376 328.823 113.572C328.823 112.685 328.068 112.233 327.375 111.775C326.966 111.506 326.521 111.308 326.1 111.051C325.886 110.92 325.695 110.797 325.504 110.639C325.44 110.585 325.345 110.646 325.275 110.584C324.939 110.282 324.538 110.057 324.203 109.749C323.98 109.545 323.774 109.327 323.524 109.135C322.45 108.31 321.465 107.334 320.613 106.293C320.273 105.876 319.618 105.835 319.087 105.835C318.121 105.835 317.131 105.752 316.153 105.752C315.288 105.752 314.424 105.752 313.559 105.752C313.38 105.752 313.119 105.707 312.944 105.757C312.793 105.8 312.653 105.971 312.486 105.995C311.968 106.069 312.545 108.171 312.697 108.475C312.806 108.694 312.951 108.892 312.986 109.135C313.027 109.425 313.268 109.569 313.316 109.832C313.37 110.128 313.641 110.239 313.641 110.574C313.641 110.901 313.829 111.069 313.953 111.317C314.076 111.564 314.027 111.845 314.2 112.105C314.379 112.373 314.521 112.638 314.714 112.912C315.008 113.33 315.462 113.716 315.869 114.021C316.384 114.408 316.929 114.676 317.519 114.929C317.807 115.052 318.333 115.153 318.574 115.342C318.9 115.598 319.302 115.593 319.619 115.864C319.835 116.05 320.233 116.054 320.471 116.249C320.716 116.449 320.977 116.624 321.251 116.79C321.803 117.124 322.425 117.506 322.882 117.964C323.307 118.388 323.901 118.842 324.221 119.366C324.264 119.437 325.076 120.36 324.817 120.434C324.523 120.518 324.239 120.521 323.909 120.521C323.593 120.521 323.664 121.482 323.63 121.755C323.512 122.695 323.427 123.813 323.607 124.757C323.768 125.604 323.533 126.642 322.699 126.976C322.296 127.137 321.891 127.251 321.48 127.434C321.178 127.568 320.587 127.278 320.329 127.494C320.197 127.603 320.12 127.844 319.999 127.984C319.867 128.138 319.686 128.177 319.495 128.236C318.722 128.478 317.904 128.195 317.198 127.906C316.621 127.67 315.952 127.239 315.337 127.127C314.694 127.01 314.22 126.716 313.848 126.219C313.497 125.752 313.239 125.152 313.142 124.569C313.07 124.138 312.749 123.863 312.94 123.368C313.116 122.91 313.791 122.773 314.265 122.836C314.734 122.899 315.144 123.326 315.576 123.483C315.852 123.583 316.168 123.589 316.447 123.721C316.809 123.892 317.236 123.766 317.602 123.923C317.874 124.039 318.278 124.089 318.574 124.134C319.07 124.208 319.582 124.089 319.582 123.492C319.582 122.438 319.107 121.317 318.244 120.641C317.779 120.277 317.193 119.974 316.694 119.651C316.297 119.393 315.826 119.305 315.438 119.036C314.711 118.533 313.857 118.231 313.146 117.698C312.382 117.124 311.386 116.663 310.772 115.901C310.444 115.494 310.171 115.04 309.846 114.636C309.525 114.237 309.12 113.931 308.814 113.508C308.567 113.166 308.279 112.858 307.985 112.564C307.836 112.415 307.772 112.131 307.65 112.023C307.503 111.892 307.37 111.696 307.37 111.487C307.37 111.283 307.146 111.07 307.082 110.863C306.97 110.505 307.04 110.045 307.04 109.671C307.04 109.079 306.467 108.97 305.922 108.97C305.353 108.97 304.908 109.017 304.446 109.387C304.18 109.6 303.993 109.665 303.781 109.923C303.628 110.11 303.484 110.453 303.318 110.584C302.842 110.958 302.498 111.571 302.136 112.032C301.786 112.477 301.358 113.052 300.788 113.242C300.353 113.387 299.806 113.631 299.413 113.361C299.09 113.14 298.471 113.107 298.093 112.995C297.671 112.869 297.268 112.767 296.827 112.701C296.145 112.599 295.332 112.481 294.645 112.619C293.688 112.81 293.411 113.95 292.936 114.663C292.766 114.917 292.591 115.201 292.509 115.488C292.446 115.71 291.974 116.081 291.813 116.272C291.48 116.665 291.106 117.189 290.703 117.505C290.404 117.74 289.929 118.321 289.874 118.706C289.804 119.194 289.251 119.317 289.136 119.779" stroke="#003049" stroke-width="4" stroke-linecap="round"/>
<path d="M288.723 120.274C287.249 120.274 286.83 121.687 286.183 122.63C285.808 123.177 285.58 123.91 285.377 124.519C285.179 125.112 284.753 125.647 284.469 126.215C284.221 126.71 284.011 127.194 283.837 127.718C283.755 127.962 283.778 128.351 283.644 128.562C283.445 128.874 282.485 128.69 282.2 128.69C281.465 128.69 280.804 128.669 280.087 128.525C279.406 128.389 278.721 128.521 278.042 128.424C276.393 128.189 274.734 128.03 273.064 128.03C272.193 128.03 271.318 128.007 270.447 128.035C269.861 128.053 269.3 128.195 268.714 128.195C268.179 128.195 267.772 128.043 267.435 127.599C267.038 127.076 266.054 126.66 265.955 125.967C265.88 125.444 265.517 124.967 265.368 124.445C265.213 123.904 265.098 123.314 264.942 122.768C264.727 122.015 264.722 121.097 264.346 120.398C263.839 119.457 263.433 118.303 263.786 117.203C263.973 116.621 264.102 115.823 264.424 115.323C264.885 114.606 265.39 113.901 266.069 113.361C266.303 113.176 266.541 112.996 266.775 112.811C266.978 112.652 267.226 112.282 267.435 112.192C267.744 112.06 267.91 111.699 268.214 111.532C268.553 111.348 268.917 111.097 269.296 111.028C271.033 110.712 272.891 110.703 274.659 110.703C275.516 110.703 276.236 110.322 277.071 110.767C277.903 111.211 278.969 111.292 279.794 111.775C280.824 112.38 282.031 113.146 283.195 112.5C283.568 112.292 283.854 111.553 283.942 111.157C283.994 110.922 284.069 110.743 284.107 110.496C284.145 110.251 284.432 110.077 284.432 109.836C284.432 109.668 284.495 109.337 284.579 109.199C284.687 109.023 284.639 108.494 284.698 108.264C284.765 108.004 284.904 107.745 284.721 107.521C284.528 107.285 284.276 107.105 283.983 106.999C283.433 106.799 282.837 106.83 282.37 106.412C282.195 106.256 281.979 106.16 281.755 106.1C281.374 105.999 281.38 105.97 281.38 105.587" stroke="#003049" stroke-width="4" stroke-linecap="round"/>
<path d="M280.884 105.257C280.84 104.451 280.719 103.637 280.719 102.827C280.719 102.408 280.819 101.922 281.008 101.544C281.139 101.282 281.127 101.039 281.233 100.801C281.435 100.347 281.463 99.6479 281.792 99.2795C281.977 99.073 281.856 98.8108 282.118 98.6149C282.445 98.3696 282.714 98.3787 283.094 98.2436C283.891 97.96 284.756 97.9135 285.606 97.9135C286.718 97.9135 287.801 97.5835 288.906 97.5835C289.204 97.5835 289.491 97.5379 289.786 97.501C289.995 97.4749 290.127 97.336 290.327 97.336C290.584 97.336 291.378 97.4776 291.547 97.2718C291.775 96.9925 291.912 96.4422 292.06 96.1029C292.21 95.7593 292.327 95.2647 292.564 94.9844C293.043 94.4189 293.149 93.5414 293.637 92.9675C294.297 92.1909 294.95 91.4519 295.571 90.6526C295.875 90.2627 296.084 89.7645 296.433 89.4149C296.751 89.0972 297.1 88.8148 297.428 88.5119C298.024 87.9615 298.741 87.921 299.449 87.6455C299.799 87.5094 300.303 87.6119 300.669 87.5997C301.169 87.583 301.669 87.5172 302.177 87.5172C303.43 87.5172 304.679 87.4347 305.936 87.4347C307.167 87.4347 308.399 87.4347 309.63 87.4347C309.83 87.4347 310.067 87.5046 310.258 87.5538C310.568 87.6334 310.956 87.6767 311.248 87.783C311.598 87.9101 312.033 87.8472 312.404 87.8472" stroke="#003049" stroke-width="4" stroke-linecap="round"/>
<path d="M311.744 87.0221C311.744 85.9923 312.045 84.9467 311.89 83.9234C311.799 83.3187 311.661 82.8206 311.661 82.1998C311.661 81.6896 311.578 81.1888 311.578 80.6871C311.578 80.3387 311.578 79.9903 311.578 79.642C311.578 79.0892 310.685 79.2621 310.341 79.2661C309.363 79.2775 308.645 79.7998 307.934 80.4212C307.049 81.1962 306.013 81.5095 304.877 81.8193C304.22 81.9984 303.482 82.021 302.832 81.9064C302.662 81.8763 302.478 81.0127 302.438 80.8154C302.253 79.8887 302.08 78.9916 302.007 78.0468C301.948 77.2745 301.466 76.8549 301.145 76.2132C300.809 75.5405 299.941 74.9755 299.115 74.9755C298.575 74.9755 298.006 74.8174 297.469 74.7463C297.267 74.7196 296.699 74.729 296.603 74.5171C296.28 73.8064 296.479 72.7077 296.479 71.9272C296.479 71.185 296.828 70.6538 297.203 70.0249C297.581 69.3926 297.884 68.6988 298.23 68.0446C298.77 67.0246 299.58 66.4937 300.77 66.4769C302.037 66.4591 303.396 66.0238 304.565 65.5693C305.153 65.3407 305.737 64.8909 306.344 64.7625C306.71 64.685 307.446 64.4548 307.733 64.2125C307.992 63.9925 308.289 63.8261 308.544 63.5707C308.721 63.3941 308.823 63.0276 309.021 62.929" stroke="#003049" stroke-width="4" stroke-linecap="round"/>
<path d="M308.773 62.5989C308.773 62.1837 309.351 61.8671 309.635 61.65C309.855 61.482 309.816 61.0873 310.093 60.9487" stroke="#003049" stroke-width="4" stroke-linecap="round"/>
<path d="M314.512 83.9487C314.512 83.4243 314.858 83.1202 315.215 82.7638C315.633 82.3456 316.368 82.3644 316.777 81.9558C317.053 81.679 317.748 81.4881 318.148 81.377C318.6 81.2514 319.019 81.0689 319.438 80.872C320.079 80.5699 321.18 80.5744 321.539 79.928C321.769 79.5147 321.784 79.1484 321.784 78.6888C321.784 78.2224 321.586 77.8047 321.574 77.3757C321.558 76.811 321.294 76.2657 321.294 75.6937C321.294 75.1822 321.294 74.6707 321.294 74.1592C321.294 73.6286 321.056 72.3058 321.504 71.8828C321.676 71.7206 322.368 72.6908 322.522 72.7957C323.174 73.2389 323.627 73.7111 324.192 74.2252C325.025 74.982 325.741 75.8075 326.648 76.4667C327.13 76.8176 327.531 77.3396 327.992 77.7254C328.259 77.949 328.455 78.2623 328.745 78.4596C329.088 78.6927 329.396 78.9428 329.685 79.2326C330.044 79.5915 330.413 79.9002 330.73 80.2776C331.036 80.6402 331.017 80.9644 331.193 81.3653C331.407 81.8544 330.783 81.8776 330.509 82.2005C330.103 82.6794 329.893 83.1355 329.615 83.7078C329.116 84.7353 328.402 85.7783 327.696 86.6757C327.507 86.9165 327.184 86.9691 326.888 87.0409C325.942 87.271 325.032 87.375 324.06 87.375C322.994 87.375 321.943 87.4449 320.875 87.4449C319.621 87.4449 318.284 87.4168 317.072 87.0603C316.504 86.8934 315.869 86.9554 315.281 86.9554C315.083 86.9554 314.811 86.9048 314.621 86.9593C314.465 87.0037 314.072 87.1318 313.913 87.0486C313.821 87 313.882 86.4931 313.882 86.396C313.882 86.1097 314.101 85.8035 314.201 85.5414C314.312 85.2522 314.447 84.6229 314.791 84.5081" stroke="#003049" stroke-width="4" stroke-linecap="round"/>
<path d="M265.215 92.4095C265.215 91.9421 265.215 91.4746 265.215 91.0072C265.215 90.506 265.253 89.6732 265.619 89.2785C266.111 88.747 266.777 88.0518 266.994 87.34C267.185 86.7128 267.339 85.9972 267.732 85.4559C267.92 85.1972 268.23 84.9702 268.505 84.8188C268.782 84.6668 269.103 84.4466 269.395 84.3527C270.004 84.157 270.646 83.8088 271.298 83.8088C271.763 83.8088 272.429 83.598 272.872 83.8438C273.116 83.9795 273.415 84.0279 273.676 84.1584C273.954 84.2975 274.33 84.5797 274.62 84.644C275.1 84.7507 275.542 85.0715 275.859 85.4015C276.267 85.8262 275.94 86.3202 275.843 86.7806C275.621 87.8393 274.698 88.9522 273.676 89.3329C273.078 89.5556 272.6 90.0306 271.998 90.2497C271.505 90.4288 271.091 90.8263 270.638 91.0654C270.203 91.2952 269.857 91.5514 269.473 91.8502C268.907 92.2901 268.313 92.5958 267.662 92.9146C267.258 93.1127 266.155 93.4528 265.844 93.0389" stroke="#003049" stroke-width="4" stroke-linecap="round"/>
<path d="M276.892 91.5704C277.15 91.6027 276.799 92.6347 276.752 92.7902C276.629 93.199 276.683 93.6606 276.683 94.0838C276.683 94.4301 276.613 94.7814 276.613 95.1366C276.613 95.6796 276.953 95.5561 277.421 95.5561C277.976 95.5561 278.42 95.5338 278.951 95.3852C279.567 95.2129 280.232 95.2764 280.862 95.2764C282.08 95.2764 283.297 95.2764 284.514 95.2764C285.336 95.2764 286.149 95.2065 286.965 95.2065C287.534 95.2065 288.316 95.2423 288.783 94.8918C289.249 94.543 289.766 94.3486 289.968 93.742C290.145 93.2112 290.566 92.8229 290.846 92.3435C291.211 91.7183 292.036 91.4004 291.297 90.6614C290.935 90.3001 290.504 90.0204 290.1 89.7174C289.818 89.5056 289.276 89.482 288.939 89.4027C288.706 89.348 288.5 89.1885 288.259 89.1231C287.656 88.9593 287.243 88.6456 286.705 88.3539C286.018 87.981 285.684 87.6008 285.186 86.9981C284.498 86.1647 284.011 84.8346 283.819 83.7777C283.761 83.4589 283.581 83.1229 283.434 82.8298C283.262 82.4849 283.203 82.0654 283.046 81.711C282.891 81.3638 282.826 81.0005 282.657 80.6622C282.508 80.3644 282.588 79.9877 282.416 79.6988C282.227 79.3795 282.276 78.9859 282.276 78.6305C282.276 78.2691 282.207 77.928 282.207 77.5699C282.207 77.0304 282.276 76.5005 282.276 75.9772C282.276 75.7149 282.354 75.5275 282.082 75.4334C281.816 75.3413 281.478 75.208 281.197 75.208C280.79 75.208 280.371 75.1381 279.953 75.1381C279.445 75.1381 279.096 75.288 278.609 75.4178C278.367 75.4825 278.163 75.6528 277.941 75.7636C277.747 75.8606 277.484 75.9211 277.312 76.0549C277.009 76.2907 276.658 76.4105 276.387 76.6609C276.146 76.8839 275.835 77.0424 275.603 77.2747C275.408 77.4697 275.335 77.7611 275.16 77.9506C275.043 78.0768 274.877 78.4929 274.864 78.6499C274.845 78.8902 274.725 79.0975 274.725 79.3724C274.725 79.6687 274.695 79.9745 274.779 80.2582C274.811 80.3649 274.765 80.4909 274.81 80.5922C274.862 80.709 274.97 80.7517 275.004 80.8719C275.054 81.0455 275.213 81.0222 275.28 81.1555C275.371 81.3378 275.522 81.5199 275.688 81.6411C275.921 81.8117 276.088 82.0739 276.36 82.1345C276.431 82.1502 276.536 82.3302 276.616 82.3753C276.778 82.4663 276.94 82.5936 277.102 82.6744C277.459 82.853 277.848 83.049 278.217 83.2105C278.49 83.3298 278.825 83.4183 279.068 83.6068C279.246 83.7456 279.744 84.0752 279.969 84.0885C280.042 84.0928 280.141 84.225 280.225 84.2594C280.501 84.3721 280.775 84.5406 281.049 84.6401C281.358 84.7526 281.62 85.1168 281.857 85.3471C282.37 85.8457 282.556 86.2295 282.556 86.9515C282.556 87.2558 282.556 87.5601 282.556 87.8644C282.556 88.1666 282.322 88.4147 282.28 88.7035C282.187 89.3603 281.215 89.3289 280.793 89.6669C280.66 89.7732 280.246 89.7955 280.078 89.8262C279.763 89.8833 279.452 89.9557 279.13 89.9621C278.818 89.9684 278.443 90.0484 278.128 90.1059C277.935 90.1408 277.655 90.147 277.506 90.2962C277.368 90.4347 277.344 90.6849 277.238 90.844C277.075 91.0885 276.953 91.3791 276.822 91.6403" stroke="#003049" stroke-width="4" stroke-linecap="round"/>
<path d="M87.2786 50.3018C85.7983 50.3018 84.6781 49.6608 83.3127 49.2563C81.7692 48.7989 80.3498 48.8575 78.8421 48.3549" stroke="#003049" stroke-width="4" stroke-linecap="round"/>
<path d="M30.1702 125.581C28.828 125.432 28.7119 122.645 27.8267 121.759C26.9308 120.863 26.5295 119.416 24.9785 119.416" stroke="#003049" stroke-width="4" stroke-linecap="round"/>
<path d="M329.016 304.694C330.441 304.694 331.801 304.875 331.936 306.568C332.039 307.855 333.234 309.245 333.234 310.534" stroke="#003049" stroke-width="4" stroke-linecap="round"/>
<path d="M332.909 310.21C332.623 310.532 332.585 310.765 332.585 311.183" stroke="#003049" stroke-width="4" stroke-linecap="round"/>
<path d="M308.249 62.632C308.249 61.2501 308.667 58.1963 309.871 57.3682C311.002 56.591 312.143 53.8501 312.143 52.5732" stroke="#003049" stroke-width="4" stroke-linecap="round"/>
<circle cx="193" cy="193" r="188" stroke="#003049" stroke-width="10"/>
</svg>
